<svg width="50" height="50" viewBox="0 0 50 50" fill="none" xmlns="http://www.w3.org/2000/svg">
<path d="M6.25001 8.33334C5.14494 8.33334 4.08513 8.77233 3.30373 9.55373C2.52233 10.3351 2.08334 11.3949 2.08334 12.5V35.4167H6.25001C6.25001 37.0743 6.90849 38.664 8.08059 39.8361C9.2527 41.0082 10.8424 41.6667 12.5 41.6667C14.1576 41.6667 15.7473 41.0082 16.9194 39.8361C18.0915 38.664 18.75 37.0743 18.75 35.4167H31.25C31.25 37.0743 31.9085 38.664 33.0806 39.8361C34.2527 41.0082 35.8424 41.6667 37.5 41.6667C39.1576 41.6667 40.7473 41.0082 41.9194 39.8361C43.0915 38.664 43.75 37.0743 43.75 35.4167H47.9167V25L41.6667 16.6667H35.4167V8.33334H6.25001ZM20.8333 12.5L29.1667 20.8333L20.8333 29.1667V22.9167H8.33334V18.75H20.8333V12.5ZM35.4167 19.7917H40.625L44.7292 25H35.4167V19.7917ZM12.5 32.2917C13.3288 32.2917 14.1237 32.6209 14.7097 33.207C15.2958 33.793 15.625 34.5879 15.625 35.4167C15.625 36.2455 15.2958 37.0403 14.7097 37.6264C14.1237 38.2124 13.3288 38.5417 12.5 38.5417C11.6712 38.5417 10.8764 38.2124 10.2903 37.6264C9.70425 37.0403 9.37501 36.2455 9.37501 35.4167C9.37501 34.5879 9.70425 33.793 10.2903 33.207C10.8764 32.6209 11.6712 32.2917 12.5 32.2917V32.2917ZM37.5 32.2917C38.3288 32.2917 39.1237 32.6209 39.7097 33.207C40.2958 33.793 40.625 34.5879 40.625 35.4167C40.625 36.2455 40.2958 37.0403 39.7097 37.6264C39.1237 38.2124 38.3288 38.5417 37.5 38.5417C36.6712 38.5417 35.8764 38.2124 35.2903 37.6264C34.7043 37.0403 34.375 36.2455 34.375 35.4167C34.375 34.5879 34.7043 33.793 35.2903 33.207C35.8764 32.6209 36.6712 32.2917 37.5 32.2917Z" fill="black"/>
</svg>
