<svg width="50" height="50" viewBox="0 0 50 50" fill="none" xmlns="http://www.w3.org/2000/svg">
<path fill-rule="evenodd" clip-rule="evenodd" d="M6.25 9.375C6.25 8.5462 6.57924 7.75134 7.16529 7.16529C7.75134 6.57924 8.5462 6.25 9.375 6.25H40.625C41.4538 6.25 42.2487 6.57924 42.8347 7.16529C43.4208 7.75134 43.75 8.5462 43.75 9.375V40.625C43.75 41.4538 43.4208 42.2487 42.8347 42.8347C42.2487 43.4208 41.4538 43.75 40.625 43.75H9.375C8.5462 43.75 7.75134 43.4208 7.16529 42.8347C6.57924 42.2487 6.25 41.4538 6.25 40.625V9.375ZM22.9167 22.9167V14.5833H27.0833V22.9167H35.4167V27.0833H27.0833V35.4167H22.9167V27.0833H14.5833V22.9167H22.9167Z" fill="#2A6049"/>
</svg>
