<svg xmlns="http://www.w3.org/2000/svg" xmlns:xlink="http://www.w3.org/1999/xlink" width="500" zoomAndPan="magnify" viewBox="0 0 375 374.999991" height="500" preserveAspectRatio="xMidYMid meet" version="1.0"><defs><g/><clipPath id="id1"><path d="M 161 114.75 L 173 114.75 L 173 123 L 161 123 Z M 161 114.75 " clip-rule="nonzero"/></clipPath><clipPath id="id2"><path d="M 229 192 L 254 192 L 254 217.5 L 229 217.5 Z M 229 192 " clip-rule="nonzero"/></clipPath><clipPath id="id3"><path d="M 124 192 L 149 192 L 149 217.5 L 124 217.5 Z M 124 192 " clip-rule="nonzero"/></clipPath></defs><path fill="rgb(96.469116%, 29.40979%, 19.219971%)" d="M 190.65625 145.15625 C 190.273438 145.15625 189.824219 145.15625 189.3125 145.109375 C 189.460938 145.585938 189.585938 146.070312 189.679688 146.558594 L 189.832031 147.394531 L 189.15625 146.894531 C 188.628906 146.496094 188.125 146.074219 187.644531 145.625 C 187.292969 146.101562 186.910156 146.550781 186.5 146.976562 L 186.066406 147.429688 L 185.941406 146.820312 C 185.804688 146.175781 185.71875 145.527344 185.679688 144.875 C 185.039062 144.996094 184.390625 145.085938 183.734375 145.140625 L 182.902344 145.207031 L 183.460938 144.589844 C 183.796875 144.21875 184.160156 143.871094 184.546875 143.546875 C 183.777344 143.121094 182.941406 142.628906 182.800781 142.539062 C 182.261719 142.636719 181.746094 142.804688 181.253906 143.042969 C 180.761719 143.285156 180.3125 143.585938 179.902344 143.945312 C 179.492188 144.308594 179.136719 144.71875 178.839844 145.175781 C 178.539062 145.632812 178.308594 146.121094 178.140625 146.644531 C 177.207031 149.921875 179.535156 153.46875 183.359375 154.554688 C 187.183594 155.640625 191.023438 153.863281 191.960938 150.582031 C 192.210938 149.625 192.222656 148.667969 191.992188 147.707031 C 191.761719 146.746094 191.316406 145.894531 190.65625 145.15625 Z M 180.9375 144.132812 C 181.445312 143.648438 182.050781 143.414062 182.75 143.421875 C 183.015625 143.523438 182.675781 143.890625 182.097656 144.390625 C 181.523438 144.890625 180.886719 145.339844 180.53125 145.308594 C 180.171875 145.273438 180.277344 144.699219 180.9375 144.132812 Z M 179.445312 150.75 C 179.117188 150.175781 178.914062 149.558594 178.832031 148.902344 C 178.746094 148.246094 178.792969 147.597656 178.96875 146.960938 C 179.039062 146.703125 179.136719 146.457031 179.25 146.21875 C 179.339844 146.023438 179.480469 145.878906 179.679688 145.792969 C 179.875 145.707031 180.074219 145.699219 180.277344 145.765625 C 180.628906 145.902344 180.628906 146.351562 180.394531 146.800781 C 180.257812 147.070312 180.148438 147.347656 180.0625 147.636719 C 179.753906 148.726562 179.820312 149.789062 180.261719 150.832031 C 180.945312 152.527344 180.488281 152.644531 179.445312 150.75 Z M 179.445312 150.75 " fill-opacity="1" fill-rule="nonzero"/><path fill="rgb(8.239746%, 47.839355%, 17.248535%)" d="M 188.785156 144.722656 C 189.621094 144.808594 190.453125 144.839844 191.292969 144.824219 C 190.527344 144.394531 189.738281 144.011719 188.929688 143.671875 C 189.476562 143.304688 189.984375 142.890625 190.457031 142.429688 C 189.707031 142.472656 188.964844 142.5625 188.226562 142.695312 C 188.257812 142.175781 188.234375 141.652344 188.160156 141.136719 C 187.710938 141.476562 187.304688 141.863281 186.933594 142.289062 C 186.332031 141.707031 185.6875 141.175781 185.003906 140.695312 C 185.140625 141.3125 185.328125 141.917969 185.574219 142.503906 C 184.699219 142.367188 183.824219 142.277344 182.941406 142.238281 C 183.65625 142.699219 184.394531 143.113281 185.15625 143.488281 C 184.632812 143.878906 184.152344 144.3125 183.710938 144.789062 C 184.488281 144.726562 185.253906 144.609375 186.015625 144.441406 C 186.019531 145.214844 186.105469 145.980469 186.265625 146.734375 C 186.753906 146.21875 187.195312 145.660156 187.585938 145.066406 C 188.140625 145.605469 188.730469 146.105469 189.355469 146.566406 C 189.21875 145.9375 189.03125 145.324219 188.785156 144.722656 Z M 188.785156 144.722656 " fill-opacity="1" fill-rule="nonzero"/><path fill="rgb(8.239746%, 47.839355%, 17.248535%)" d="M 151.390625 150.257812 C 151.34375 150.175781 151.292969 150.097656 151.238281 150.023438 C 150.101562 148.355469 146.519531 147.71875 144.558594 148.152344 L 144.359375 147.21875 C 146.664062 146.777344 150.378906 147.292969 152.050781 149.457031 C 152.125 149.5625 152.191406 149.671875 152.257812 149.78125 L 151.421875 150.257812 Z M 151.390625 150.257812 " fill-opacity="1" fill-rule="nonzero"/><path fill="rgb(8.239746%, 47.839355%, 17.248535%)" d="M 152.332031 149.0625 C 151.621094 147.886719 151.300781 146.613281 151.371094 145.242188 C 151.328125 143.851562 151.707031 142.589844 152.507812 141.453125 L 153.242188 142.070312 C 152.59375 143.03125 152.289062 144.089844 152.332031 145.25 C 152.265625 146.410156 152.523438 147.492188 153.109375 148.496094 L 152.339844 149.082031 L 152.339844 149.03125 Z M 152.332031 149.0625 " fill-opacity="1" fill-rule="nonzero"/><path fill="rgb(8.239746%, 47.839355%, 17.248535%)" d="M 151.605469 148.671875 C 150.964844 147.679688 150.5 146.613281 150.207031 145.472656 C 149.910156 144.332031 149.804688 143.171875 149.886719 141.996094 L 150.839844 142.121094 C 150.703125 144.289062 151.21875 146.292969 152.382812 148.128906 C 152.628906 148.464844 152.929688 148.742188 153.285156 148.964844 L 152.785156 149.796875 C 152.316406 149.496094 151.921875 149.113281 151.605469 148.65625 Z M 151.605469 148.671875 " fill-opacity="1" fill-rule="nonzero"/><path fill="rgb(8.239746%, 47.839355%, 17.248535%)" d="M 152.050781 148.722656 C 151.578125 148.292969 151.160156 147.816406 150.796875 147.292969 C 149.722656 145.722656 148.886719 144.035156 148.292969 142.230469 L 147.382812 142.539062 C 148.003906 144.433594 148.878906 146.203125 150.003906 147.851562 C 150.371094 148.363281 150.78125 148.835938 151.238281 149.273438 C 151.496094 149.070312 151.765625 148.886719 152.050781 148.722656 Z M 152.050781 148.722656 " fill-opacity="1" fill-rule="nonzero"/><path fill="rgb(8.239746%, 47.839355%, 17.248535%)" d="M 145.503906 145.351562 L 145.738281 144.421875 C 148.089844 145.042969 149.910156 147.453125 151.40625 148.886719 L 150.738281 149.582031 C 149.167969 148.046875 147.398438 145.800781 145.503906 145.351562 Z M 145.503906 145.351562 " fill-opacity="1" fill-rule="nonzero"/><path fill="rgb(96.469116%, 53.329468%, 12.548828%)" d="M 150.796875 147.429688 C 149.527344 148.335938 149.125 150.023438 150.488281 152.382812 C 150.378906 152.191406 150.277344 152 150.195312 151.816406 C 151.210938 151.0625 152.324219 150.507812 153.535156 150.148438 C 152.480469 150.8125 151.480469 151.550781 150.527344 152.359375 C 150.703125 152.667969 150.914062 152.992188 151.148438 153.328125 C 151.054688 153.203125 150.980469 153.078125 150.898438 152.953125 C 151.910156 152.195312 153.023438 151.636719 154.238281 151.28125 C 153.175781 151.949219 152.171875 152.6875 151.214844 153.496094 L 151.640625 154.046875 C 152.636719 153.296875 153.730469 152.742188 154.921875 152.375 C 153.921875 153.035156 152.964844 153.75 152.050781 154.519531 C 152.300781 154.828125 152.574219 155.15625 152.882812 155.488281 L 152.523438 155.070312 C 153.488281 154.378906 154.539062 153.867188 155.679688 153.535156 C 154.714844 154.152344 153.78125 154.8125 152.882812 155.523438 L 153.386719 156.082031 C 154.300781 155.441406 155.292969 154.964844 156.367188 154.65625 C 155.722656 155.136719 154.613281 155.78125 153.761719 156.5 L 153.441406 156.148438 C 153.722656 156.453125 154 156.761719 154.277344 157.074219 C 155.136719 156.496094 156.0625 156.066406 157.058594 155.78125 C 156.457031 156.222656 155.464844 156.816406 154.644531 157.449219 C 157.460938 160.394531 160.859375 163.382812 161.800781 162.707031 C 163.238281 161.671875 158.378906 152.46875 156.308594 149.597656 C 154.238281 146.726562 152.234375 146.394531 150.796875 147.429688 Z M 158.585938 161.171875 L 158.269531 160.90625 C 158.804688 160.636719 159.359375 160.421875 159.9375 160.261719 C 159.5625 160.519531 159.097656 160.828125 158.585938 161.171875 Z M 157.542969 160.277344 L 157.199219 159.96875 C 157.839844 159.609375 158.515625 159.332031 159.222656 159.136719 C 158.785156 159.453125 158.160156 159.8125 157.542969 160.277344 Z M 156.550781 159.351562 L 156.199219 159.019531 C 156.921875 158.582031 157.691406 158.25 158.503906 158.015625 C 158.011719 158.382812 157.257812 158.84375 156.550781 159.351562 Z M 155.589844 158.417969 L 155.222656 158.050781 C 156.019531 157.539062 156.875 157.15625 157.785156 156.898438 C 157.242188 157.308594 156.367188 157.832031 155.589844 158.417969 Z M 155.589844 158.417969 " fill-opacity="1" fill-rule="nonzero"/><path fill="rgb(8.239746%, 47.839355%, 17.248535%)" d="M 175.425781 146.917969 C 175.679688 146.710938 175.894531 146.46875 176.070312 146.191406 C 177.265625 144.289062 176.320312 141.5625 173.964844 140.085938 C 172.949219 139.429688 171.835938 139.128906 170.625 139.183594 C 170.433594 138.402344 170.058594 137.722656 169.5 137.140625 C 168.941406 136.5625 168.277344 136.160156 167.503906 135.9375 C 165.25 135.101562 162.960938 135.777344 162.386719 137.371094 L 162.386719 137.457031 C 162.285156 137.457031 162.183594 137.457031 162.078125 137.457031 C 160.199219 137.605469 158.738281 138.941406 158.902344 140.441406 C 158.917969 140.558594 158.941406 140.671875 158.96875 140.785156 C 157.734375 140.828125 156.742188 141.621094 156.742188 142.519531 C 156.742188 143.421875 157.785156 144.265625 159.0625 144.265625 C 159.308594 144.285156 159.546875 144.269531 159.789062 144.210938 C 160.027344 144.152344 160.25 144.058594 160.457031 143.925781 C 160.664062 143.792969 160.84375 143.628906 160.996094 143.4375 C 161.148438 143.246094 161.265625 143.035156 161.351562 142.804688 C 161.996094 142.953125 162.636719 142.933594 163.269531 142.746094 C 163.386719 143.175781 163.597656 143.546875 163.90625 143.863281 C 164.214844 144.183594 164.582031 144.40625 165.007812 144.53125 C 165.398438 144.691406 165.804688 144.75 166.226562 144.714844 C 166.648438 144.675781 167.035156 144.546875 167.394531 144.324219 C 167.871094 145.449219 168.632812 146.328125 169.675781 146.960938 C 169.941406 147.132812 170.21875 147.277344 170.511719 147.402344 C 170.554688 148.007812 170.742188 148.5625 171.070312 149.070312 C 171.972656 150.5 173.632812 151.066406 174.769531 150.339844 C 175.019531 150.140625 175.226562 149.90625 175.394531 149.632812 C 175.558594 149.359375 175.671875 149.066406 175.734375 148.75 C 175.792969 148.4375 175.796875 148.125 175.746094 147.808594 C 175.691406 147.492188 175.585938 147.195312 175.425781 146.917969 Z M 159.832031 140.878906 L 159.730469 140.710938 C 159.675781 140.492188 159.660156 140.269531 159.6875 140.046875 C 159.71875 139.820312 159.785156 139.609375 159.894531 139.410156 C 160.003906 139.214844 160.148438 139.042969 160.320312 138.898438 C 160.496094 138.757812 160.691406 138.652344 160.90625 138.582031 L 161.257812 138.464844 C 161.035156 138.558594 160.835938 138.691406 160.660156 138.859375 C 160.484375 139.027344 160.347656 139.222656 160.25 139.445312 C 160.148438 139.667969 160.09375 139.902344 160.085938 140.144531 C 160.074219 140.386719 160.109375 140.621094 160.191406 140.851562 L 160.296875 141.042969 C 160.390625 141.203125 160.507812 141.339844 160.648438 141.460938 C 160.296875 141.375 160.023438 141.183594 159.832031 140.878906 Z M 162.976562 139.683594 C 162.847656 139.320312 162.816406 138.949219 162.882812 138.566406 C 162.945312 138.1875 163.101562 137.847656 163.347656 137.546875 C 163.730469 137.054688 164.210938 136.6875 164.789062 136.445312 C 164.96875 136.371094 165.152344 136.3125 165.339844 136.269531 C 164.664062 136.582031 164.152344 137.066406 163.8125 137.730469 C 163.429688 138.453125 163.386719 139.191406 163.6875 139.949219 C 163.847656 140.324219 164.082031 140.640625 164.390625 140.902344 C 163.714844 140.730469 163.246094 140.324219 162.976562 139.683594 Z M 164.03125 143.121094 C 163.949219 142.929688 163.917969 142.730469 163.9375 142.519531 C 164.011719 142.015625 164.269531 141.648438 164.722656 141.410156 L 164.914062 141.320312 C 165.011719 141.28125 165.109375 141.253906 165.207031 141.234375 C 165.074219 141.292969 164.949219 141.371094 164.839844 141.46875 C 164.570312 141.6875 164.398438 141.964844 164.324219 142.304688 C 164.25 142.632812 164.285156 142.949219 164.421875 143.253906 C 164.519531 143.472656 164.660156 143.664062 164.839844 143.824219 C 164.46875 143.707031 164.199219 143.472656 164.03125 143.121094 Z M 168.90625 142.585938 C 168.632812 143.039062 168.472656 143.523438 168.429688 144.046875 C 168.167969 143.335938 168.191406 142.636719 168.507812 141.945312 C 168.546875 141.863281 168.582031 141.769531 168.632812 141.6875 C 169.070312 141.027344 169.679688 140.632812 170.460938 140.511719 C 171.496094 140.339844 172.457031 140.539062 173.339844 141.109375 C 173.546875 141.238281 173.742188 141.382812 173.925781 141.542969 C 173.519531 141.289062 173.085938 141.117188 172.613281 141.03125 C 172.144531 140.945312 171.675781 140.949219 171.207031 141.046875 C 170.742188 141.140625 170.308594 141.320312 169.910156 141.585938 C 169.511719 141.847656 169.175781 142.175781 168.90625 142.570312 Z M 172.085938 146.152344 C 171.898438 146.296875 171.75 146.476562 171.636719 146.683594 C 171.664062 146.296875 171.832031 145.976562 172.136719 145.734375 C 172.296875 145.628906 172.464844 145.554688 172.652344 145.519531 C 172.839844 145.484375 173.023438 145.484375 173.210938 145.527344 C 173.394531 145.566406 173.566406 145.640625 173.71875 145.75 C 173.875 145.863281 174 145.996094 174.101562 146.160156 C 174.160156 146.242188 174.207031 146.332031 174.25 146.425781 C 174.128906 146.261719 173.976562 146.128906 173.800781 146.027344 C 173.621094 145.921875 173.429688 145.859375 173.226562 145.832031 C 173.023438 145.804688 172.824219 145.820312 172.625 145.875 C 172.425781 145.929688 172.25 146.023438 172.085938 146.152344 Z M 170.132812 147.429688 C 169.011719 147.636719 167.976562 148.0625 167.027344 148.695312 C 166.082031 149.332031 165.296875 150.125 164.671875 151.082031 C 165.5 149.171875 165.796875 147.183594 165.566406 145.117188 C 165.335938 145.082031 165.109375 145.03125 164.890625 144.957031 C 164.59375 144.851562 164.316406 144.714844 164.054688 144.539062 C 163.832031 145.882812 163.539062 147.195312 163.21875 148.5625 C 163.070312 146.777344 162.429688 145.1875 161.300781 143.796875 C 161.066406 144.0625 160.785156 144.273438 160.464844 144.421875 C 163.011719 147.601562 162.242188 152.308594 160.898438 153.9375 L 166.042969 155.78125 C 166.339844 154.414062 166.878906 153.15625 167.667969 152 C 168.453125 150.84375 169.429688 149.878906 170.59375 149.105469 C 170.3125 148.582031 170.15625 148.023438 170.125 147.429688 Z M 170.132812 147.429688 " fill-opacity="1" fill-rule="nonzero"/><path fill="rgb(64.309692%, 77.249146%, 17.248535%)" d="M 141.953125 152.851562 C 140.65625 152.851562 139.359375 152.941406 138.074219 153.121094 C 136.785156 153.304688 135.519531 153.574219 134.269531 153.929688 C 133.019531 154.289062 131.800781 154.734375 130.613281 155.261719 C 129.425781 155.792969 128.28125 156.398438 127.179688 157.089844 C 126.078125 157.777344 125.027344 158.539062 124.035156 159.375 C 123.039062 160.210938 122.105469 161.113281 121.238281 162.078125 C 120.371094 163.046875 119.570312 164.066406 118.847656 165.144531 C 118.121094 166.222656 117.472656 167.347656 116.90625 168.515625 C 116.648438 169.050781 118.183594 169.589844 117.957031 170.183594 L 167.730469 170.183594 C 167.210938 168.910156 166.601562 167.683594 165.898438 166.5 C 165.199219 165.316406 164.414062 164.191406 163.546875 163.125 C 162.675781 162.058594 161.734375 161.0625 160.71875 160.136719 C 159.703125 159.207031 158.625 158.359375 157.484375 157.59375 C 156.34375 156.824219 155.152344 156.148438 153.910156 155.554688 C 152.667969 154.964844 151.386719 154.46875 150.074219 154.066406 C 148.757812 153.664062 147.417969 153.363281 146.058594 153.160156 C 144.699219 152.957031 143.328125 152.851562 141.953125 152.851562 Z M 141.953125 152.851562 " fill-opacity="1" fill-rule="nonzero"/><path fill="rgb(34.118652%, 64.709473%, 17.248535%)" d="M 141.953125 157.785156 C 140.910156 157.785156 139.871094 157.855469 138.835938 157.996094 C 137.800781 158.140625 136.78125 158.351562 135.773438 158.632812 C 134.769531 158.914062 133.785156 159.261719 132.828125 159.679688 C 131.871094 160.097656 130.945312 160.574219 130.054688 161.117188 C 129.160156 161.660156 128.308594 162.261719 127.5 162.921875 C 126.691406 163.582031 125.929688 164.292969 125.214844 165.054688 C 124.503906 165.816406 123.847656 166.625 123.246094 167.480469 C 122.644531 168.332031 122.101562 169.222656 121.621094 170.152344 L 162.285156 170.152344 C 161.804688 169.222656 161.265625 168.332031 160.664062 167.480469 C 160.058594 166.625 159.402344 165.820312 158.691406 165.054688 C 157.976562 164.292969 157.214844 163.582031 156.40625 162.921875 C 155.597656 162.261719 154.746094 161.660156 153.851562 161.117188 C 152.960938 160.574219 152.035156 160.097656 151.078125 159.679688 C 150.121094 159.265625 149.136719 158.914062 148.132812 158.632812 C 147.128906 158.351562 146.105469 158.140625 145.074219 157.996094 C 144.039062 157.855469 143 157.785156 141.953125 157.785156 Z M 141.953125 157.785156 " fill-opacity="1" fill-rule="nonzero"/><path fill="rgb(100%, 100%, 100%)" d="M 141.953125 158.144531 C 142.972656 158.144531 143.988281 158.214844 145 158.351562 C 146.007812 158.492188 147.003906 158.699219 147.984375 158.972656 C 148.96875 159.246094 149.925781 159.585938 150.863281 159.988281 C 151.796875 160.390625 152.703125 160.859375 153.574219 161.382812 C 154.449219 161.910156 155.28125 162.492188 156.074219 163.132812 C 156.867188 163.773438 157.617188 164.460938 158.316406 165.203125 C 159.015625 165.945312 159.660156 166.730469 160.253906 167.558594 C 160.847656 168.386719 161.382812 169.25 161.859375 170.152344 L 162.695312 170.152344 C 162.210938 169.199219 161.664062 168.28125 161.054688 167.40625 C 160.445312 166.527344 159.777344 165.695312 159.050781 164.910156 C 158.328125 164.125 157.550781 163.394531 156.726562 162.714844 C 155.902344 162.035156 155.03125 161.417969 154.121094 160.859375 C 153.210938 160.296875 152.265625 159.804688 151.285156 159.375 C 150.308594 158.945312 149.300781 158.585938 148.273438 158.296875 C 147.246094 158.007812 146.199219 157.789062 145.140625 157.640625 C 144.082031 157.496094 143.019531 157.421875 141.949219 157.421875 C 140.882812 157.421875 139.816406 157.496094 138.757812 157.640625 C 137.699219 157.789062 136.65625 158.007812 135.625 158.296875 C 134.597656 158.585938 133.59375 158.945312 132.613281 159.375 C 131.636719 159.804688 130.691406 160.296875 129.777344 160.859375 C 128.867188 161.417969 128 162.035156 127.171875 162.714844 C 126.347656 163.394531 125.574219 164.125 124.847656 164.910156 C 124.125 165.695312 123.457031 166.527344 122.847656 167.40625 C 122.234375 168.28125 121.6875 169.199219 121.207031 170.152344 L 122.039062 170.152344 C 122.515625 169.25 123.050781 168.382812 123.644531 167.554688 C 124.238281 166.726562 124.886719 165.941406 125.585938 165.203125 C 126.285156 164.460938 127.035156 163.769531 127.828125 163.132812 C 128.621094 162.492188 129.457031 161.910156 130.328125 161.382812 C 131.203125 160.855469 132.105469 160.390625 133.042969 159.988281 C 133.980469 159.582031 134.9375 159.242188 135.921875 158.96875 C 136.902344 158.695312 137.898438 158.492188 138.910156 158.351562 C 139.917969 158.214844 140.933594 158.144531 141.953125 158.144531 Z M 141.953125 158.144531 " fill-opacity="1" fill-rule="nonzero"/><path fill="rgb(8.239746%, 47.839355%, 17.248535%)" d="M 141.953125 162.78125 C 140.542969 162.78125 139.152344 162.945312 137.78125 163.277344 C 136.410156 163.605469 135.097656 164.089844 133.839844 164.730469 C 132.585938 165.371094 131.421875 166.148438 130.347656 167.066406 C 129.277344 167.980469 128.328125 169.007812 127.5 170.152344 L 156.40625 170.152344 C 155.578125 169.007812 154.628906 167.980469 153.558594 167.066406 C 152.488281 166.148438 151.324219 165.371094 150.066406 164.730469 C 148.8125 164.089844 147.496094 163.605469 146.125 163.277344 C 144.753906 162.945312 143.363281 162.78125 141.953125 162.78125 Z M 141.953125 162.78125 " fill-opacity="1" fill-rule="nonzero"/><path fill="rgb(100%, 100%, 100%)" d="M 141.953125 163.148438 C 143.308594 163.152344 144.648438 163.308594 145.96875 163.625 C 147.285156 163.9375 148.554688 164.398438 149.765625 165.003906 C 150.976562 165.609375 152.105469 166.347656 153.148438 167.214844 C 154.1875 168.082031 155.117188 169.058594 155.929688 170.140625 L 156.875 170.140625 C 156.457031 169.546875 156 168.976562 155.515625 168.4375 C 155.027344 167.894531 154.507812 167.386719 153.957031 166.90625 C 153.410156 166.425781 152.832031 165.980469 152.230469 165.570312 C 151.628906 165.160156 151.003906 164.789062 150.359375 164.453125 C 149.710938 164.117188 149.046875 163.820312 148.363281 163.566406 C 147.679688 163.308594 146.984375 163.09375 146.277344 162.921875 C 145.570312 162.75 144.851562 162.617188 144.128906 162.53125 C 143.40625 162.445312 142.679688 162.402344 141.949219 162.402344 C 141.222656 162.402344 140.496094 162.445312 139.769531 162.53125 C 139.046875 162.617188 138.332031 162.75 137.621094 162.921875 C 136.914062 163.09375 136.21875 163.308594 135.535156 163.566406 C 134.855469 163.820312 134.191406 164.117188 133.542969 164.453125 C 132.894531 164.789062 132.269531 165.160156 131.667969 165.570312 C 131.066406 165.980469 130.492188 166.425781 129.941406 166.90625 C 129.390625 167.386719 128.875 167.894531 128.386719 168.4375 C 127.898438 168.976562 127.445312 169.546875 127.023438 170.140625 L 127.976562 170.140625 C 128.789062 169.058594 129.71875 168.082031 130.757812 167.210938 C 131.800781 166.34375 132.925781 165.605469 134.140625 164.996094 C 135.351562 164.390625 136.621094 163.929688 137.9375 163.617188 C 139.257812 163.304688 140.597656 163.148438 141.953125 163.148438 Z M 141.953125 163.148438 " fill-opacity="1" fill-rule="nonzero"/><path fill="rgb(0%, 35.688782%, 5.879211%)" d="M 141.953125 167.03125 C 140.367188 167.027344 138.828125 167.292969 137.335938 167.828125 C 135.839844 168.363281 134.484375 169.140625 133.261719 170.152344 L 150.644531 170.152344 C 149.425781 169.140625 148.066406 168.367188 146.574219 167.828125 C 145.082031 167.292969 143.539062 167.027344 141.953125 167.03125 Z M 141.953125 167.03125 " fill-opacity="1" fill-rule="nonzero"/><path fill="rgb(100%, 100%, 100%)" d="M 141.953125 167.398438 C 143.414062 167.398438 144.832031 167.632812 146.210938 168.105469 C 147.589844 168.578125 148.859375 169.257812 150.011719 170.152344 L 151.214844 170.152344 C 150.582031 169.59375 149.902344 169.09375 149.183594 168.660156 C 148.460938 168.222656 147.703125 167.855469 146.914062 167.558594 C 146.125 167.261719 145.316406 167.035156 144.484375 166.882812 C 143.65625 166.730469 142.820312 166.65625 141.976562 166.65625 C 141.132812 166.65625 140.292969 166.730469 139.464844 166.882812 C 138.632812 167.035156 137.824219 167.261719 137.035156 167.558594 C 136.246094 167.855469 135.492188 168.222656 134.769531 168.660156 C 134.046875 169.09375 133.367188 169.59375 132.734375 170.152344 L 133.914062 170.152344 C 135.066406 169.261719 136.328125 168.582031 137.707031 168.109375 C 139.082031 167.640625 140.5 167.402344 141.953125 167.398438 Z M 141.953125 167.398438 " fill-opacity="1" fill-rule="nonzero"/><path fill="rgb(64.309692%, 77.249146%, 17.248535%)" d="M 210.402344 181.007812 C 210.386719 180 210.324219 178.996094 210.207031 177.996094 C 210.09375 176.996094 209.929688 176 209.71875 175.015625 C 209.511719 174.03125 209.25 173.058594 208.945312 172.097656 C 208.640625 171.136719 208.289062 170.195312 207.890625 169.269531 C 207.496094 168.34375 207.054688 167.4375 206.570312 166.554688 C 206.082031 165.671875 205.558594 164.816406 204.988281 163.984375 C 204.417969 163.152344 203.8125 162.347656 203.164062 161.578125 C 202.519531 160.804688 201.835938 160.0625 201.117188 159.359375 C 200.398438 158.652344 199.648438 157.980469 198.863281 157.347656 C 198.082031 156.714844 197.269531 156.121094 196.425781 155.566406 C 195.585938 155.011719 194.71875 154.5 193.828125 154.027344 C 192.933594 153.558594 192.023438 153.132812 191.089844 152.75 C 190.15625 152.367188 189.207031 152.03125 188.242188 151.742188 C 187.277344 151.453125 186.300781 151.210938 185.3125 151.015625 C 184.324219 150.824219 183.328125 150.675781 182.324219 150.578125 C 181.320312 150.480469 180.3125 150.433594 179.304688 150.433594 C 178.296875 150.433594 177.292969 150.480469 176.289062 150.578125 C 175.285156 150.675781 174.289062 150.824219 173.300781 151.015625 C 172.3125 151.210938 171.335938 151.453125 170.367188 151.742188 C 169.402344 152.03125 168.453125 152.367188 167.523438 152.75 C 166.589844 153.132812 165.675781 153.558594 164.785156 154.027344 C 163.894531 154.5 163.027344 155.011719 162.1875 155.566406 C 161.34375 156.121094 160.53125 156.714844 159.746094 157.347656 C 158.964844 157.980469 158.214844 158.652344 157.496094 159.359375 C 156.777344 160.0625 156.09375 160.804688 155.445312 161.578125 C 154.800781 162.347656 154.191406 163.152344 153.625 163.984375 C 153.054688 164.816406 152.527344 165.671875 152.042969 166.554688 C 151.558594 167.4375 151.117188 168.34375 150.71875 169.269531 C 150.324219 170.195312 149.972656 171.136719 149.664062 172.097656 C 149.359375 173.058594 149.101562 174.03125 148.890625 175.015625 C 148.679688 176 148.519531 176.996094 148.402344 177.996094 C 148.289062 178.996094 148.222656 180 148.207031 181.007812 C 148.207031 181.574219 148.207031 182.140625 148.257812 182.675781 L 210.355469 182.675781 C 210.386719 182.140625 210.402344 181.574219 210.402344 181.007812 Z M 210.402344 181.007812 " fill-opacity="1" fill-rule="nonzero"/><path fill="rgb(100%, 100%, 100%)" d="M 148.625 181.007812 C 148.640625 180.015625 148.707031 179.023438 148.820312 178.035156 C 148.933594 177.046875 149.09375 176.070312 149.300781 175.097656 C 149.507812 174.125 149.761719 173.164062 150.066406 172.21875 C 150.367188 171.273438 150.710938 170.339844 151.105469 169.429688 C 151.496094 168.515625 151.933594 167.621094 152.410156 166.75 C 152.890625 165.878906 153.410156 165.035156 153.96875 164.214844 C 154.53125 163.394531 155.128906 162.601562 155.769531 161.839844 C 156.40625 161.078125 157.078125 160.347656 157.789062 159.648438 C 158.496094 158.953125 159.238281 158.292969 160.011719 157.667969 C 160.785156 157.042969 161.585938 156.457031 162.417969 155.910156 C 163.246094 155.363281 164.101562 154.855469 164.980469 154.394531 C 165.859375 153.929688 166.761719 153.507812 167.679688 153.132812 C 168.601562 152.753906 169.539062 152.425781 170.488281 152.140625 C 171.441406 151.855469 172.40625 151.613281 173.382812 151.421875 C 174.359375 151.230469 175.339844 151.085938 176.328125 150.992188 C 177.320312 150.894531 178.3125 150.847656 179.304688 150.847656 C 180.300781 150.847656 181.292969 150.894531 182.28125 150.992188 C 183.273438 151.085938 184.253906 151.230469 185.230469 151.421875 C 186.207031 151.613281 187.171875 151.855469 188.121094 152.140625 C 189.074219 152.425781 190.011719 152.753906 190.933594 153.132812 C 191.851562 153.507812 192.75 153.929688 193.632812 154.394531 C 194.511719 154.855469 195.367188 155.363281 196.195312 155.910156 C 197.027344 156.457031 197.828125 157.042969 198.601562 157.667969 C 199.375 158.292969 200.113281 158.953125 200.824219 159.648438 C 201.53125 160.347656 202.207031 161.078125 202.84375 161.839844 C 203.480469 162.601562 204.082031 163.394531 204.640625 164.214844 C 205.203125 165.035156 205.722656 165.878906 206.203125 166.75 C 206.679688 167.621094 207.117188 168.515625 207.507812 169.429688 C 207.898438 170.339844 208.246094 171.273438 208.546875 172.21875 C 208.847656 173.164062 209.105469 174.125 209.3125 175.097656 C 209.519531 176.070312 209.679688 177.046875 209.792969 178.035156 C 209.90625 179.023438 209.96875 180.015625 209.988281 181.007812 C 209.988281 181.574219 209.988281 182.140625 209.9375 182.675781 L 210.773438 182.675781 C 210.773438 182.117188 210.820312 181.550781 210.820312 181.007812 C 210.804688 179.988281 210.738281 178.96875 210.625 177.953125 C 210.507812 176.941406 210.34375 175.933594 210.128906 174.933594 C 209.914062 173.9375 209.65625 172.949219 209.34375 171.976562 C 209.035156 171.003906 208.679688 170.050781 208.277344 169.109375 C 207.875 168.171875 207.425781 167.253906 206.9375 166.359375 C 206.445312 165.464844 205.910156 164.597656 205.335938 163.753906 C 204.757812 162.910156 204.140625 162.097656 203.488281 161.3125 C 202.832031 160.53125 202.140625 159.78125 201.410156 159.066406 C 200.683594 158.347656 199.921875 157.667969 199.128906 157.027344 C 198.332031 156.386719 197.511719 155.78125 196.65625 155.222656 C 195.804688 154.660156 194.925781 154.140625 194.023438 153.664062 C 193.121094 153.1875 192.195312 152.753906 191.25 152.367188 C 190.304688 151.980469 189.34375 151.640625 188.363281 151.347656 C 187.386719 151.054688 186.394531 150.808594 185.390625 150.609375 C 184.390625 150.414062 183.378906 150.265625 182.363281 150.167969 C 181.347656 150.066406 180.328125 150.019531 179.304688 150.019531 C 178.285156 150.019531 177.265625 150.066406 176.25 150.167969 C 175.230469 150.265625 174.222656 150.414062 173.21875 150.609375 C 172.21875 150.808594 171.226562 151.054688 170.25 151.347656 C 169.269531 151.640625 168.308594 151.980469 167.363281 152.367188 C 166.417969 152.753906 165.492188 153.1875 164.589844 153.664062 C 163.6875 154.140625 162.808594 154.660156 161.953125 155.222656 C 161.101562 155.78125 160.277344 156.386719 159.484375 157.027344 C 158.691406 157.667969 157.929688 158.347656 157.199219 159.066406 C 156.472656 159.78125 155.78125 160.53125 155.125 161.3125 C 154.46875 162.097656 153.855469 162.910156 153.277344 163.753906 C 152.703125 164.597656 152.167969 165.464844 151.675781 166.359375 C 151.183594 167.253906 150.738281 168.171875 150.335938 169.109375 C 149.933594 170.050781 149.578125 171.003906 149.265625 171.976562 C 148.957031 172.949219 148.695312 173.9375 148.484375 174.933594 C 148.269531 175.933594 148.105469 176.941406 147.988281 177.953125 C 147.875 178.96875 147.808594 179.988281 147.789062 181.007812 C 147.789062 181.574219 147.789062 182.140625 147.839844 182.675781 L 148.675781 182.675781 C 148.640625 182.140625 148.625 181.574219 148.625 181.007812 Z M 148.625 181.007812 " fill-opacity="1" fill-rule="nonzero"/><path fill="rgb(34.118652%, 64.709473%, 17.248535%)" d="M 204.886719 181.007812 C 204.886719 180.171875 204.84375 179.335938 204.761719 178.5 C 204.679688 177.667969 204.558594 176.839844 204.394531 176.019531 C 204.230469 175.199219 204.027344 174.386719 203.785156 173.585938 C 203.539062 172.785156 203.257812 171.996094 202.9375 171.222656 C 202.617188 170.449219 202.257812 169.691406 201.863281 168.953125 C 201.46875 168.214844 201.039062 167.5 200.574219 166.800781 C 200.109375 166.105469 199.609375 165.433594 199.078125 164.785156 C 198.546875 164.140625 197.984375 163.519531 197.390625 162.925781 C 196.800781 162.335938 196.179688 161.773438 195.53125 161.242188 C 194.882812 160.710938 194.210938 160.214844 193.515625 159.746094 C 192.820312 159.28125 192.101562 158.851562 191.363281 158.457031 C 190.621094 158.0625 189.867188 157.707031 189.09375 157.386719 C 188.316406 157.066406 187.53125 156.78125 186.726562 156.539062 C 185.925781 156.296875 185.113281 156.09375 184.292969 155.929688 C 183.472656 155.765625 182.644531 155.644531 181.808594 155.5625 C 180.976562 155.480469 180.140625 155.4375 179.300781 155.4375 C 178.464844 155.4375 177.628906 155.480469 176.792969 155.5625 C 175.960938 155.644531 175.132812 155.765625 174.3125 155.929688 C 173.488281 156.09375 172.675781 156.296875 171.875 156.539062 C 171.074219 156.78125 170.285156 157.066406 169.511719 157.386719 C 168.738281 157.707031 167.980469 158.0625 167.242188 158.457031 C 166.503906 158.851562 165.785156 159.28125 165.089844 159.746094 C 164.390625 160.214844 163.71875 160.710938 163.070312 161.242188 C 162.425781 161.773438 161.804688 162.335938 161.210938 162.925781 C 160.621094 163.519531 160.058594 164.140625 159.527344 164.785156 C 158.996094 165.433594 158.496094 166.105469 158.03125 166.800781 C 157.566406 167.5 157.132812 168.214844 156.738281 168.953125 C 156.34375 169.691406 155.988281 170.449219 155.667969 171.222656 C 155.34375 171.996094 155.0625 172.785156 154.820312 173.585938 C 154.578125 174.386719 154.375 175.199219 154.210938 176.019531 C 154.046875 176.839844 153.925781 177.667969 153.84375 178.5 C 153.761719 179.335938 153.71875 180.171875 153.71875 181.007812 C 153.71875 181.574219 153.71875 182.140625 153.777344 182.675781 L 204.816406 182.675781 C 204.859375 182.140625 204.886719 181.574219 204.886719 181.007812 Z M 204.886719 181.007812 " fill-opacity="1" fill-rule="nonzero"/><path fill="rgb(100%, 100%, 100%)" d="M 154.144531 181.007812 C 154.128906 180.175781 154.15625 179.34375 154.222656 178.511719 C 154.289062 177.679688 154.398438 176.855469 154.550781 176.035156 C 154.699219 175.214844 154.886719 174.40625 155.117188 173.605469 C 155.347656 172.804688 155.617188 172.015625 155.925781 171.242188 C 156.234375 170.46875 156.582031 169.710938 156.964844 168.972656 C 157.347656 168.230469 157.769531 167.511719 158.222656 166.816406 C 158.679688 166.117188 159.167969 165.441406 159.691406 164.792969 C 160.210938 164.144531 160.765625 163.523438 161.351562 162.925781 C 161.933594 162.332031 162.546875 161.769531 163.1875 161.234375 C 163.828125 160.699219 164.492188 160.199219 165.183594 159.734375 C 165.871094 159.265625 166.582031 158.832031 167.316406 158.4375 C 168.050781 158.039062 168.800781 157.679688 169.570312 157.355469 C 170.339844 157.035156 171.121094 156.75 171.917969 156.507812 C 172.714844 156.261719 173.523438 156.058594 174.339844 155.890625 C 175.15625 155.726562 175.980469 155.605469 176.8125 155.523438 C 177.640625 155.4375 178.472656 155.398438 179.304688 155.398438 C 180.140625 155.398438 180.972656 155.4375 181.800781 155.523438 C 182.632812 155.605469 183.453125 155.726562 184.273438 155.890625 C 185.089844 156.058594 185.898438 156.261719 186.695312 156.507812 C 187.492188 156.75 188.273438 157.035156 189.042969 157.355469 C 189.8125 157.679688 190.5625 158.039062 191.296875 158.4375 C 192.027344 158.832031 192.738281 159.265625 193.429688 159.734375 C 194.121094 160.199219 194.785156 160.699219 195.425781 161.234375 C 196.066406 161.769531 196.679688 162.332031 197.261719 162.925781 C 197.847656 163.523438 198.398438 164.144531 198.921875 164.792969 C 199.445312 165.441406 199.933594 166.117188 200.386719 166.816406 C 200.84375 167.511719 201.261719 168.230469 201.648438 168.972656 C 202.03125 169.710938 202.378906 170.46875 202.6875 171.242188 C 202.992188 172.015625 203.261719 172.804688 203.492188 173.605469 C 203.722656 174.40625 203.914062 175.214844 204.0625 176.035156 C 204.214844 176.855469 204.320312 177.679688 204.390625 178.511719 C 204.457031 179.34375 204.484375 180.175781 204.46875 181.007812 C 204.46875 181.574219 204.46875 182.140625 204.402344 182.675781 L 205.234375 182.675781 C 205.234375 182.117188 205.292969 181.550781 205.292969 181.007812 C 205.308594 180.148438 205.28125 179.289062 205.210938 178.429688 C 205.140625 177.570312 205.03125 176.71875 204.875 175.871094 C 204.71875 175.027344 204.523438 174.1875 204.285156 173.363281 C 204.046875 172.535156 203.769531 171.71875 203.449219 170.921875 C 203.132812 170.121094 202.773438 169.339844 202.378906 168.574219 C 201.980469 167.8125 201.546875 167.070312 201.078125 166.347656 C 200.605469 165.625 200.101562 164.929688 199.5625 164.261719 C 199.023438 163.589844 198.449219 162.945312 197.847656 162.332031 C 197.242188 161.71875 196.609375 161.136719 195.949219 160.585938 C 195.289062 160.03125 194.601562 159.515625 193.886719 159.03125 C 193.175781 158.550781 192.441406 158.101562 191.683594 157.691406 C 190.925781 157.285156 190.148438 156.910156 189.355469 156.578125 C 188.5625 156.246094 187.753906 155.953125 186.929688 155.699219 C 186.105469 155.449219 185.273438 155.238281 184.425781 155.066406 C 183.582031 154.898438 182.730469 154.769531 181.875 154.683594 C 181.019531 154.597656 180.160156 154.554688 179.296875 154.554688 C 178.4375 154.554688 177.578125 154.597656 176.71875 154.683594 C 175.863281 154.769531 175.011719 154.898438 174.167969 155.066406 C 173.324219 155.238281 172.488281 155.449219 171.667969 155.699219 C 170.84375 155.953125 170.035156 156.246094 169.238281 156.578125 C 168.445312 156.910156 167.671875 157.285156 166.914062 157.691406 C 166.15625 158.101562 165.421875 158.550781 164.707031 159.03125 C 163.996094 159.515625 163.308594 160.03125 162.644531 160.585938 C 161.984375 161.136719 161.351562 161.71875 160.75 162.332031 C 160.144531 162.945312 159.574219 163.589844 159.035156 164.261719 C 158.492188 164.929688 157.988281 165.625 157.519531 166.347656 C 157.046875 167.070312 156.613281 167.8125 156.21875 168.574219 C 155.820312 169.339844 155.464844 170.121094 155.144531 170.921875 C 154.824219 171.71875 154.546875 172.535156 154.308594 173.363281 C 154.070312 174.1875 153.875 175.027344 153.71875 175.871094 C 153.566406 176.71875 153.453125 177.570312 153.382812 178.429688 C 153.3125 179.289062 153.285156 180.148438 153.300781 181.007812 C 153.300781 181.574219 153.300781 182.140625 153.359375 182.675781 L 154.195312 182.675781 C 154.167969 182.140625 154.144531 181.574219 154.144531 181.007812 Z M 154.144531 181.007812 " fill-opacity="1" fill-rule="nonzero"/><path fill="rgb(8.239746%, 47.839355%, 17.248535%)" d="M 199.308594 181.007812 C 199.269531 180.378906 199.199219 179.753906 199.101562 179.128906 C 199.003906 178.507812 198.878906 177.890625 198.722656 177.28125 C 198.566406 176.667969 198.382812 176.066406 198.167969 175.472656 C 197.957031 174.878906 197.714844 174.296875 197.449219 173.726562 C 197.179688 173.15625 196.886719 172.601562 196.566406 172.058594 C 196.246094 171.515625 195.898438 170.988281 195.53125 170.476562 C 195.160156 169.96875 194.765625 169.476562 194.347656 169.003906 C 193.933594 168.527344 193.496094 168.078125 193.035156 167.644531 C 192.574219 167.210938 192.097656 166.804688 191.597656 166.417969 C 191.101562 166.03125 190.585938 165.667969 190.054688 165.328125 C 189.519531 164.992188 188.972656 164.679688 188.414062 164.394531 C 187.851562 164.105469 187.277344 163.847656 186.691406 163.613281 C 186.105469 163.382812 185.507812 163.179688 184.902344 163.003906 C 184.296875 162.828125 183.683594 162.679688 183.066406 162.5625 C 182.445312 162.441406 181.820312 162.355469 181.195312 162.292969 C 180.566406 162.234375 179.9375 162.207031 179.304688 162.207031 C 178.675781 162.207031 178.046875 162.234375 177.417969 162.292969 C 176.789062 162.355469 176.167969 162.441406 175.546875 162.5625 C 174.929688 162.679688 174.316406 162.828125 173.710938 163.003906 C 173.105469 163.179688 172.507812 163.382812 171.921875 163.613281 C 171.335938 163.847656 170.761719 164.105469 170.199219 164.394531 C 169.636719 164.679688 169.089844 164.992188 168.558594 165.328125 C 168.027344 165.667969 167.511719 166.03125 167.011719 166.417969 C 166.515625 166.804688 166.035156 167.210938 165.578125 167.644531 C 165.117188 168.078125 164.679688 168.527344 164.261719 169.003906 C 163.847656 169.476562 163.453125 169.96875 163.082031 170.476562 C 162.710938 170.988281 162.367188 171.515625 162.046875 172.058594 C 161.726562 172.601562 161.433594 173.15625 161.164062 173.726562 C 160.894531 174.296875 160.65625 174.878906 160.441406 175.472656 C 160.230469 176.066406 160.046875 176.667969 159.890625 177.28125 C 159.734375 177.890625 159.605469 178.507812 159.507812 179.128906 C 159.410156 179.753906 159.34375 180.378906 159.304688 181.007812 C 159.304688 181.582031 159.304688 182.140625 159.386719 182.675781 L 199.222656 182.675781 C 199.273438 182.140625 199.308594 181.582031 199.308594 181.007812 Z M 199.308594 181.007812 " fill-opacity="1" fill-rule="nonzero"/><path fill="rgb(100%, 100%, 100%)" d="M 159.722656 181.007812 C 159.734375 180.375 159.777344 179.746094 159.851562 179.117188 C 159.925781 178.488281 160.03125 177.863281 160.167969 177.246094 C 160.300781 176.628906 160.464844 176.019531 160.660156 175.414062 C 160.851562 174.8125 161.074219 174.222656 161.328125 173.640625 C 161.578125 173.058594 161.855469 172.492188 162.164062 171.9375 C 162.46875 171.386719 162.800781 170.847656 163.160156 170.324219 C 163.519531 169.804688 163.902344 169.300781 164.308594 168.816406 C 164.71875 168.332031 165.148438 167.871094 165.597656 167.425781 C 166.050781 166.984375 166.523438 166.5625 167.015625 166.167969 C 167.511719 165.769531 168.019531 165.398438 168.550781 165.050781 C 169.078125 164.703125 169.625 164.382812 170.183594 164.085938 C 170.746094 163.792969 171.316406 163.527344 171.902344 163.285156 C 172.488281 163.046875 173.085938 162.835938 173.691406 162.65625 C 174.300781 162.472656 174.914062 162.324219 175.535156 162.199219 C 176.15625 162.078125 176.78125 161.988281 177.410156 161.925781 C 178.042969 161.867188 178.671875 161.835938 179.304688 161.835938 C 179.9375 161.835938 180.570312 161.867188 181.199219 161.925781 C 181.832031 161.988281 182.457031 162.078125 183.078125 162.199219 C 183.699219 162.324219 184.3125 162.472656 184.917969 162.65625 C 185.527344 162.835938 186.121094 163.046875 186.707031 163.285156 C 187.292969 163.527344 187.867188 163.792969 188.429688 164.085938 C 188.988281 164.382812 189.53125 164.703125 190.0625 165.050781 C 190.589844 165.398438 191.101562 165.769531 191.59375 166.167969 C 192.089844 166.5625 192.5625 166.984375 193.011719 167.425781 C 193.464844 167.871094 193.894531 168.332031 194.300781 168.816406 C 194.710938 169.300781 195.09375 169.804688 195.453125 170.324219 C 195.808594 170.847656 196.140625 171.386719 196.449219 171.9375 C 196.753906 172.492188 197.035156 173.058594 197.285156 173.640625 C 197.535156 174.222656 197.757812 174.8125 197.953125 175.414062 C 198.148438 176.019531 198.3125 176.628906 198.445312 177.246094 C 198.582031 177.863281 198.683594 178.488281 198.757812 179.117188 C 198.832031 179.746094 198.878906 180.375 198.890625 181.007812 C 198.890625 181.582031 198.890625 182.140625 198.804688 182.675781 L 199.640625 182.675781 C 199.691406 182.117188 199.726562 181.558594 199.726562 181.007812 C 199.710938 180.347656 199.667969 179.691406 199.589844 179.035156 C 199.511719 178.378906 199.402344 177.730469 199.261719 177.085938 C 199.121094 176.441406 198.953125 175.804688 198.75 175.175781 C 198.546875 174.546875 198.316406 173.929688 198.054688 173.324219 C 197.792969 172.71875 197.5 172.125 197.183594 171.550781 C 196.863281 170.972656 196.515625 170.410156 196.140625 169.867188 C 195.769531 169.324219 195.371094 168.796875 194.945312 168.292969 C 194.519531 167.789062 194.074219 167.304688 193.601562 166.84375 C 193.128906 166.378906 192.636719 165.941406 192.121094 165.527344 C 191.609375 165.113281 191.074219 164.726562 190.523438 164.363281 C 189.972656 164 189.402344 163.664062 188.820312 163.359375 C 188.234375 163.050781 187.636719 162.773438 187.027344 162.523438 C 186.414062 162.273438 185.792969 162.054688 185.160156 161.867188 C 184.527344 161.675781 183.886719 161.519531 183.238281 161.390625 C 182.59375 161.265625 181.9375 161.167969 181.28125 161.105469 C 180.625 161.039062 179.964844 161.007812 179.304688 161.007812 C 178.644531 161.007812 177.988281 161.039062 177.328125 161.105469 C 176.671875 161.167969 176.019531 161.265625 175.371094 161.390625 C 174.722656 161.519531 174.085938 161.675781 173.453125 161.867188 C 172.820312 162.054688 172.199219 162.273438 171.585938 162.523438 C 170.976562 162.773438 170.378906 163.050781 169.792969 163.359375 C 169.207031 163.664062 168.640625 164 168.089844 164.363281 C 167.535156 164.726562 167.003906 165.113281 166.488281 165.527344 C 165.976562 165.941406 165.484375 166.378906 165.011719 166.84375 C 164.539062 167.304688 164.09375 167.789062 163.667969 168.292969 C 163.242188 168.796875 162.84375 169.324219 162.46875 169.867188 C 162.097656 170.410156 161.75 170.972656 161.429688 171.550781 C 161.109375 172.125 160.820312 172.71875 160.558594 173.324219 C 160.296875 173.929688 160.066406 174.546875 159.863281 175.175781 C 159.660156 175.804688 159.488281 176.441406 159.347656 177.085938 C 159.207031 177.730469 159.101562 178.378906 159.023438 179.035156 C 158.945312 179.691406 158.902344 180.347656 158.886719 181.007812 C 158.886719 181.582031 158.886719 182.140625 158.960938 182.675781 L 159.796875 182.675781 C 159.753906 182.140625 159.722656 181.582031 159.722656 181.007812 Z M 159.722656 181.007812 " fill-opacity="1" fill-rule="nonzero"/><path fill="rgb(0%, 35.688782%, 5.879211%)" d="M 194.558594 181.007812 C 194.558594 180.007812 194.457031 179.015625 194.261719 178.03125 C 194.066406 177.050781 193.777344 176.097656 193.394531 175.171875 C 193.011719 174.25 192.542969 173.371094 191.984375 172.539062 C 191.429688 171.703125 190.796875 170.933594 190.089844 170.226562 C 189.378906 169.519531 188.609375 168.886719 187.777344 168.332031 C 186.945312 167.773438 186.066406 167.304688 185.140625 166.921875 C 184.214844 166.539062 183.261719 166.25 182.277344 166.054688 C 181.296875 165.859375 180.304688 165.761719 179.300781 165.761719 C 178.300781 165.761719 177.308594 165.859375 176.324219 166.054688 C 175.34375 166.25 174.390625 166.539062 173.464844 166.921875 C 172.539062 167.304688 171.660156 167.773438 170.828125 168.332031 C 169.992188 168.886719 169.222656 169.519531 168.515625 170.226562 C 167.808594 170.933594 167.175781 171.703125 166.617188 172.539062 C 166.0625 173.371094 165.589844 174.25 165.207031 175.171875 C 164.824219 176.097656 164.535156 177.050781 164.339844 178.03125 C 164.144531 179.015625 164.046875 180.007812 164.046875 181.007812 C 164.050781 181.566406 164.085938 182.121094 164.148438 182.675781 L 194.457031 182.675781 C 194.523438 182.121094 194.554688 181.566406 194.558594 181.007812 Z M 194.558594 181.007812 " fill-opacity="1" fill-rule="nonzero"/><path fill="rgb(100%, 100%, 100%)" d="M 164.464844 181.007812 C 164.464844 180.035156 164.558594 179.070312 164.75 178.113281 C 164.9375 177.15625 165.21875 176.230469 165.59375 175.332031 C 165.964844 174.429688 166.421875 173.574219 166.960938 172.765625 C 167.503906 171.957031 168.117188 171.207031 168.808594 170.515625 C 169.496094 169.828125 170.246094 169.214844 171.054688 168.671875 C 171.867188 168.128906 172.722656 167.671875 173.621094 167.300781 C 174.523438 166.929688 175.449219 166.648438 176.40625 166.457031 C 177.363281 166.265625 178.328125 166.171875 179.300781 166.171875 C 180.277344 166.171875 181.242188 166.265625 182.199219 166.457031 C 183.152344 166.648438 184.082031 166.929688 184.980469 167.300781 C 185.882812 167.671875 186.738281 168.128906 187.546875 168.671875 C 188.359375 169.214844 189.105469 169.828125 189.796875 170.515625 C 190.484375 171.207031 191.101562 171.957031 191.640625 172.765625 C 192.183594 173.574219 192.640625 174.429688 193.011719 175.332031 C 193.382812 176.230469 193.664062 177.15625 193.855469 178.113281 C 194.046875 179.070312 194.140625 180.035156 194.140625 181.007812 C 194.140625 181.566406 194.105469 182.121094 194.039062 182.675781 L 194.875 182.675781 C 194.933594 182.121094 194.964844 181.566406 194.964844 181.007812 C 194.964844 179.980469 194.867188 178.960938 194.664062 177.953125 C 194.464844 176.941406 194.167969 175.964844 193.773438 175.011719 C 193.378906 174.0625 192.894531 173.160156 192.324219 172.304688 C 191.753906 171.449219 191.101562 170.660156 190.375 169.933594 C 189.648438 169.203125 188.855469 168.554688 188 167.984375 C 187.144531 167.414062 186.242188 166.929688 185.292969 166.535156 C 184.339844 166.144531 183.359375 165.847656 182.351562 165.644531 C 181.34375 165.445312 180.324219 165.34375 179.292969 165.34375 C 178.265625 165.34375 177.246094 165.445312 176.234375 165.644531 C 175.226562 165.847656 174.246094 166.144531 173.296875 166.535156 C 172.34375 166.929688 171.441406 167.414062 170.585938 167.984375 C 169.730469 168.554688 168.9375 169.203125 168.210938 169.933594 C 167.484375 170.660156 166.835938 171.449219 166.261719 172.304688 C 165.691406 173.160156 165.207031 174.0625 164.8125 175.011719 C 164.421875 175.964844 164.125 176.941406 163.921875 177.953125 C 163.722656 178.960938 163.621094 179.980469 163.621094 181.007812 C 163.625 181.566406 163.660156 182.121094 163.722656 182.675781 L 164.554688 182.675781 C 164.492188 182.121094 164.460938 181.566406 164.464844 181.007812 Z M 164.464844 181.007812 " fill-opacity="1" fill-rule="nonzero"/><path fill="rgb(72.938538%, 59.609985%, 45.489502%)" d="M 154.730469 126.039062 C 151.222656 125.707031 147.972656 127.890625 147.800781 129.785156 C 147.625 131.679688 150.304688 132.113281 153.785156 132.441406 C 157.265625 132.765625 160.324219 132.867188 160.464844 130.972656 C 160.605469 129.078125 158.234375 126.367188 154.730469 126.039062 Z M 151.507812 127.765625 C 151.035156 128.003906 150.636719 128.332031 150.308594 128.75 C 149.984375 129.164062 149.761719 129.628906 149.644531 130.144531 C 149.617188 130.359375 149.640625 130.570312 149.71875 130.773438 C 149.835938 131.105469 149.570312 131.179688 149.160156 130.773438 C 148.878906 130.496094 148.765625 130.160156 148.816406 129.769531 C 148.960938 128.269531 151.539062 126.53125 154.320312 126.792969 L 154.394531 126.792969 C 153.359375 126.898438 152.394531 127.222656 151.507812 127.765625 Z M 151.507812 127.765625 " fill-opacity="1" fill-rule="nonzero"/><path fill="rgb(72.938538%, 59.609985%, 45.489502%)" d="M 152.675781 132.773438 C 151.597656 134.652344 149.167969 136.113281 150.511719 137.6875 C 153.242188 140.867188 155.457031 136.980469 155.523438 134.5 C 155.542969 134.003906 155.523438 133.511719 155.464844 133.015625 C 154.921875 133.015625 154.34375 132.941406 153.71875 132.882812 Z M 152.675781 132.773438 " fill-opacity="1" fill-rule="nonzero"/><path fill="rgb(34.118652%, 64.709473%, 17.248535%)" d="M 134.140625 128.191406 C 133.953125 128.492188 133.882812 128.8125 133.925781 129.164062 C 133.972656 129.511719 134.125 129.804688 134.382812 130.046875 C 134.707031 130.386719 134.972656 130.472656 134.941406 130.5625 C 134.90625 130.65625 134.546875 130.613281 134.105469 130.195312 C 133.945312 130.0625 133.8125 129.902344 133.710938 129.71875 C 133.609375 129.535156 133.542969 129.339844 133.515625 129.132812 C 133.488281 128.925781 133.5 128.71875 133.550781 128.515625 C 133.597656 128.308594 133.683594 128.121094 133.804688 127.949219 C 133.957031 127.734375 134.144531 127.5625 134.375 127.433594 C 134.605469 127.300781 134.851562 127.226562 135.113281 127.207031 C 135.375 127.1875 135.628906 127.222656 135.875 127.316406 C 136.121094 127.410156 136.335938 127.550781 136.519531 127.742188 C 136.710938 128.328125 136.066406 128.953125 135.558594 128.667969 C 135.335938 128.59375 135.148438 128.464844 135 128.28125 C 134.847656 128.101562 134.757812 127.890625 134.722656 127.660156 C 134.730469 127.429688 134.78125 127.210938 134.878906 127.003906 C 134.972656 126.792969 135.101562 126.609375 135.269531 126.453125 C 135.4375 126.296875 135.628906 126.179688 135.84375 126.097656 C 136.058594 126.019531 136.28125 125.980469 136.511719 125.988281 C 136.296875 126 136.089844 126.050781 135.898438 126.140625 C 135.703125 126.230469 135.53125 126.351562 135.382812 126.507812 C 135.234375 126.664062 135.121094 126.839844 135.042969 127.039062 C 134.964844 127.238281 134.921875 127.445312 134.925781 127.660156 C 134.925781 128.386719 136.351562 128.808594 136.167969 127.875 C 136.011719 127.769531 135.839844 127.695312 135.652344 127.652344 C 135.464844 127.609375 135.277344 127.605469 135.089844 127.632812 C 134.902344 127.664062 134.726562 127.726562 134.5625 127.824219 C 134.398438 127.917969 134.257812 128.042969 134.140625 128.191406 Z M 134.140625 128.191406 " fill-opacity="1" fill-rule="nonzero"/><path fill="rgb(34.118652%, 64.709473%, 17.248535%)" d="M 139.03125 134.328125 C 136.835938 132.339844 134.632812 130.152344 133.929688 129.394531 C 133.875 129.628906 133.875 129.863281 133.929688 130.09375 C 133.957031 130.203125 133.957031 130.308594 133.929688 130.414062 L 133.988281 130.472656 C 134.523438 131.410156 134.980469 132.386719 135.359375 133.398438 C 135.859375 134.492188 136.359375 135.59375 136.84375 136.695312 C 136.933594 136.886719 136.917969 137.066406 136.792969 137.238281 C 137.597656 137.890625 138.496094 138.363281 139.488281 138.65625 C 140.480469 138.953125 141.492188 139.050781 142.523438 138.949219 C 143.394531 138.847656 144.207031 138.570312 144.960938 138.113281 C 142.785156 137.164062 140.808594 135.902344 139.03125 134.328125 Z M 139.03125 134.328125 " fill-opacity="1" fill-rule="nonzero"/><path fill="rgb(34.118652%, 64.709473%, 17.248535%)" d="M 133.679688 129.511719 C 133.617188 129.433594 133.566406 129.351562 133.519531 129.261719 C 133.519531 129.261719 133.519531 129.261719 133.480469 129.261719 L 133.628906 129.519531 Z M 133.679688 129.511719 " fill-opacity="1" fill-rule="nonzero"/><path fill="rgb(34.118652%, 64.709473%, 17.248535%)" d="M 134.515625 131.621094 C 134.539062 131.863281 134.472656 132.074219 134.324219 132.265625 C 134.175781 132.453125 133.984375 132.566406 133.746094 132.597656 L 133.589844 132.597656 L 133.589844 133.023438 L 133.789062 132.957031 C 133.9375 132.90625 134.089844 132.886719 134.25 132.898438 C 134.40625 132.910156 134.554688 132.949219 134.695312 133.023438 C 134.835938 133.097656 134.953125 133.199219 135.054688 133.320312 C 135.152344 133.445312 135.222656 133.582031 135.261719 133.734375 C 135.304688 133.886719 135.3125 134.042969 135.289062 134.199219 C 135.265625 134.355469 135.210938 134.5 135.125 134.632812 C 135.042969 134.769531 134.933594 134.878906 134.800781 134.96875 C 134.671875 135.054688 134.527344 135.117188 134.371094 135.144531 C 134.214844 135.199219 134.054688 135.214844 133.886719 135.195312 C 133.886719 135.34375 133.964844 135.496094 134.003906 135.636719 C 134.148438 135.496094 134.320312 135.40625 134.515625 135.359375 C 134.65625 135.292969 134.804688 135.253906 134.960938 135.246094 C 135.117188 135.242188 135.269531 135.265625 135.414062 135.320312 C 135.5625 135.378906 135.691406 135.460938 135.800781 135.570312 C 135.914062 135.683594 136 135.808594 136.054688 135.953125 C 136.113281 136.101562 136.140625 136.25 136.136719 136.40625 C 136.132812 136.566406 136.09375 136.714844 136.027344 136.855469 C 135.960938 136.996094 135.867188 137.117188 135.75 137.222656 C 135.632812 137.324219 135.5 137.398438 135.351562 137.449219 C 135.175781 137.53125 134.992188 137.570312 134.796875 137.554688 C 134.867188 137.703125 134.945312 137.847656 135.03125 137.988281 C 135.144531 137.839844 135.28125 137.726562 135.449219 137.648438 C 135.582031 137.574219 135.722656 137.53125 135.871094 137.515625 C 136.019531 137.5 136.164062 137.511719 136.308594 137.554688 C 136.453125 137.59375 136.582031 137.664062 136.699219 137.757812 C 136.816406 137.851562 136.910156 137.964844 136.980469 138.09375 C 137.054688 138.226562 137.097656 138.363281 137.113281 138.515625 C 137.128906 138.664062 137.117188 138.808594 137.074219 138.953125 C 137.035156 139.097656 136.964844 139.226562 136.871094 139.34375 C 136.777344 139.460938 136.667969 139.554688 136.535156 139.625 C 136.457031 139.675781 136.375 139.714844 136.285156 139.742188 L 136.511719 140.019531 C 136.5625 139.957031 136.621094 139.910156 136.6875 139.867188 C 136.882812 139.730469 137.101562 139.679688 137.335938 139.71875 C 137.574219 139.753906 137.765625 139.871094 137.914062 140.058594 C 138.042969 140.257812 138.089844 140.472656 138.050781 140.707031 C 138.015625 140.9375 137.90625 141.128906 137.722656 141.277344 C 138.011719 141.558594 138.320312 141.820312 138.648438 142.0625 L 138.722656 142.113281 C 138.4375 139.851562 137.929688 137.640625 137.203125 135.476562 C 136.207031 133.433594 135.046875 131.488281 133.730469 129.636719 C 133.730469 129.886719 133.636719 130.328125 133.605469 130.90625 C 133.824219 130.898438 134.019531 130.960938 134.191406 131.097656 C 134.363281 131.230469 134.472656 131.40625 134.515625 131.621094 Z M 134.515625 131.621094 " fill-opacity="1" fill-rule="nonzero"/><path fill="rgb(34.118652%, 64.709473%, 17.248535%)" d="M 133.53125 129.261719 C 133.113281 129.839844 132.773438 130.460938 132.515625 131.125 C 132.253906 131.789062 132.082031 132.476562 131.996094 133.183594 C 131.910156 133.890625 131.914062 134.597656 132.007812 135.304688 C 132.105469 136.011719 132.285156 136.695312 132.550781 137.355469 C 134.3125 141.710938 138.929688 142.746094 138.875 142.460938 C 138.714844 142.753906 135.039062 139.515625 134.164062 136.789062 C 132.871094 134 133.429688 129.277344 133.5625 129.320312 Z M 133.53125 129.261719 " fill-opacity="1" fill-rule="nonzero"/><path fill="rgb(34.118652%, 64.709473%, 17.248535%)" d="M 184.613281 132.480469 C 183.910156 133.503906 183.414062 134.617188 183.125 135.820312 C 182.929688 136.570312 182.765625 137.320312 182.625 138.074219 C 182.308594 137.261719 182.164062 136.425781 182.1875 135.554688 C 182.210938 134.6875 182.40625 133.855469 182.765625 133.066406 C 183.472656 131.933594 184.398438 131.023438 185.546875 130.335938 C 185.742188 131.035156 185.832031 131.746094 185.820312 132.46875 C 185.804688 133.195312 185.691406 133.902344 185.472656 134.59375 C 185.253906 135.28125 184.941406 135.925781 184.535156 136.527344 C 184.128906 137.125 183.644531 137.65625 183.085938 138.113281 C 183.183594 137.398438 183.300781 136.679688 183.453125 135.960938 C 183.695312 134.753906 184.082031 133.59375 184.613281 132.480469 Z M 184.613281 132.480469 " fill-opacity="1" fill-rule="nonzero"/><path fill="rgb(64.309692%, 77.249146%, 17.248535%)" d="M 176.9375 133.359375 C 177.964844 134.578125 178.761719 135.929688 179.335938 137.414062 C 179.710938 138.324219 180.019531 139.257812 180.3125 140.191406 C 180.726562 139.070312 180.847656 137.917969 180.679688 136.734375 C 180.511719 135.550781 180.070312 134.480469 179.359375 133.515625 C 178.28125 132.214844 176.917969 131.359375 175.277344 130.945312 C 174.855469 132.453125 174.855469 133.957031 175.277344 135.460938 C 175.625 136.558594 176.195312 137.53125 176.980469 138.371094 C 177.765625 139.214844 178.695312 139.84375 179.769531 140.269531 C 179.550781 139.351562 179.320312 138.449219 179.027344 137.5625 C 178.566406 136.042969 177.871094 134.640625 176.9375 133.359375 Z M 176.9375 133.359375 " fill-opacity="1" fill-rule="nonzero"/><path fill="rgb(64.309692%, 77.249146%, 17.248535%)" d="M 139.230469 121.652344 C 140.179688 122.351562 140.988281 123.1875 141.660156 124.152344 C 142.085938 124.738281 142.496094 125.363281 142.847656 125.988281 C 142.953125 125.109375 142.84375 124.253906 142.515625 123.429688 C 142.1875 122.601562 141.683594 121.902344 141.003906 121.332031 C 139.996094 120.582031 138.867188 120.203125 137.613281 120.191406 C 137.558594 121.347656 137.8125 122.4375 138.371094 123.453125 C 138.8125 124.183594 139.390625 124.785156 140.105469 125.257812 C 140.820312 125.726562 141.601562 126.023438 142.445312 126.140625 C 142.144531 125.515625 141.808594 124.910156 141.445312 124.320312 C 140.851562 123.308594 140.117188 122.421875 139.230469 121.652344 Z M 139.230469 121.652344 " fill-opacity="1" fill-rule="nonzero"/><path fill="rgb(8.239746%, 47.839355%, 17.248535%)" d="M 146.203125 123.878906 C 145.683594 124.660156 145.339844 125.511719 145.167969 126.433594 C 145.050781 127.023438 145.085938 127.765625 145.027344 128.367188 C 144.628906 127.742188 144.410156 127.054688 144.363281 126.316406 C 144.316406 125.574219 144.453125 124.867188 144.769531 124.195312 C 145.273438 123.324219 145.980469 122.679688 146.898438 122.261719 C 147.339844 123.109375 147.535156 124.007812 147.480469 124.964844 C 147.398438 125.660156 147.171875 126.304688 146.804688 126.898438 C 146.433594 127.496094 145.957031 127.984375 145.371094 128.367188 C 145.371094 127.792969 145.417969 127.214844 145.476562 126.648438 C 145.566406 125.6875 145.808594 124.761719 146.203125 123.878906 Z M 146.203125 123.878906 " fill-opacity="1" fill-rule="nonzero"/><path fill="rgb(100%, 100%, 100%)" d="M 140.402344 157.074219 C 140.671875 156.597656 140.820312 156.085938 140.839844 155.535156 C 140.859375 154.988281 140.75 154.464844 140.507812 153.96875 C 140.179688 153.425781 139.75 152.980469 139.214844 152.636719 C 137.664062 151.550781 135.785156 151.03125 134.207031 149.972656 C 133.097656 149.222656 132.207031 148.265625 131.542969 147.101562 C 131.421875 146.851562 131.261719 146.625 131.066406 146.425781 C 130.84375 146.207031 130.585938 146.160156 130.296875 146.285156 C 130.070312 146.429688 129.964844 146.640625 129.988281 146.910156 C 130.011719 147.160156 130.078125 147.390625 130.199219 147.613281 C 131.070312 149.632812 132.289062 151.421875 133.847656 152.976562 C 134.890625 153.980469 136.125 154.886719 136.59375 156.25 C 136.761719 156.722656 136.820312 157.234375 136.953125 157.71875 C 137.167969 158.5 137.628906 159.335938 138.523438 158.910156 C 139.347656 158.503906 139.972656 157.890625 140.402344 157.074219 Z M 140.402344 157.074219 " fill-opacity="1" fill-rule="nonzero"/><path fill="rgb(49.798584%, 18.818665%, 40.779114%)" d="M 138.214844 151.507812 C 136.828125 150.828125 135.507812 150.039062 134.257812 149.136719 C 133.609375 148.644531 133.015625 148.085938 132.484375 147.46875 C 132.117188 147.042969 131.71875 146.558594 131.285156 146.109375 C 131.050781 146.210938 130.808594 146.289062 130.558594 146.34375 C 130.972656 146.742188 131.390625 147.175781 131.75 147.628906 L 131.984375 147.902344 C 132.546875 148.546875 133.167969 149.128906 133.847656 149.648438 C 135.089844 150.539062 136.398438 151.324219 137.769531 152 L 137.90625 152.066406 C 140.925781 153.660156 140.636719 155.246094 140.160156 156.296875 C 139.800781 157.152344 139.273438 157.878906 138.574219 158.484375 C 138.859375 158.128906 139.105469 157.746094 139.316406 157.339844 C 139.890625 156.265625 140.300781 154.613281 137.21875 152.726562 L 137.085938 152.652344 C 135.679688 151.847656 134.351562 150.929688 133.105469 149.898438 C 132.414062 149.3125 131.796875 148.65625 131.25 147.9375 L 131.023438 147.628906 C 130.722656 147.234375 130.398438 146.792969 130.054688 146.410156 L 129.8125 146.410156 C 129.953125 146.902344 129.984375 147.40625 129.90625 147.910156 L 129.839844 148.355469 L 129.414062 148.210938 C 128.640625 147.949219 127.914062 147.597656 127.226562 147.160156 C 127.066406 147.890625 126.664062 148.445312 126.023438 148.828125 C 126.339844 151.480469 127.3125 153.867188 128.9375 155.988281 C 131.542969 159.152344 137.878906 162.867188 140.769531 156.546875 C 141.878906 154.152344 140.234375 152.566406 138.214844 151.507812 Z M 138.214844 151.507812 " fill-opacity="1" fill-rule="nonzero"/><path fill="rgb(8.239746%, 47.839355%, 17.248535%)" d="M 131.433594 145.625 C 130.609375 144.699219 129.601562 144.074219 128.402344 143.757812 C 127.667969 143.605469 127.058594 143.421875 126.867188 142.753906 L 126.03125 143.136719 C 126.195312 143.441406 126.273438 143.765625 126.265625 144.113281 C 126.257812 144.460938 126.164062 144.78125 125.980469 145.074219 C 125.757812 145.574219 125.625 146.097656 125.582031 146.644531 C 125.609375 147.285156 125.695312 147.917969 125.839844 148.546875 C 126.199219 148.304688 126.480469 147.992188 126.6875 147.609375 C 126.890625 147.226562 126.996094 146.820312 127 146.382812 C 127 146.878906 129.128906 147.769531 129.546875 147.902344 C 129.628906 147.527344 129.621094 147.15625 129.527344 146.785156 C 129.429688 146.410156 129.257812 146.082031 129.003906 145.792969 C 129.503906 146.34375 130.875 145.992188 131.433594 145.625 Z M 131.433594 145.625 " fill-opacity="1" fill-rule="nonzero"/><g clip-path="url(#id1)"><path fill="rgb(8.239746%, 47.839355%, 17.248535%)" d="M 169.316406 120.367188 C 169.867188 120.105469 171.820312 119.679688 171.410156 118.886719 C 170.859375 117.878906 168.488281 119.3125 167.996094 119.796875 C 167.296875 118.40625 168.253906 117.109375 167.847656 115.792969 C 167.210938 113.78125 165.140625 114.957031 165.191406 116.761719 C 163.195312 113.914062 159.320312 116.570312 162.070312 118.355469 C 163.554688 119.3125 164.363281 118.753906 165.902344 119.390625 C 166.390625 119.5625 166.789062 119.859375 167.09375 120.277344 C 167.398438 120.695312 167.558594 121.164062 167.570312 121.683594 C 167.625 121.675781 167.675781 121.675781 167.730469 121.683594 C 168.214844 121.777344 168.65625 121.96875 169.058594 122.261719 C 169.652344 122.152344 170.253906 122.09375 170.859375 122.085938 C 173.957031 121.800781 171.179688 120.222656 169.316406 120.367188 Z M 169.316406 120.367188 " fill-opacity="1" fill-rule="nonzero"/></g><path fill="rgb(49.798584%, 18.818665%, 40.779114%)" d="M 168.023438 121.507812 C 167.777344 121.421875 167.53125 121.359375 167.273438 121.324219 C 167.019531 121.285156 166.761719 121.273438 166.503906 121.289062 C 166.246094 121.300781 165.992188 121.339844 165.742188 121.402344 C 165.492188 121.464844 165.25 121.554688 165.019531 121.664062 C 164.785156 121.777344 164.566406 121.910156 164.359375 122.0625 C 164.152344 122.21875 163.964844 122.390625 163.792969 122.585938 C 163.621094 122.777344 163.46875 122.984375 163.335938 123.207031 C 163.207031 123.425781 163.097656 123.660156 163.011719 123.902344 C 162.175781 126.722656 165.398438 127.667969 164.941406 131.355469 C 166.492188 128.160156 169.949219 129.410156 170.867188 126.242188 C 170.992188 125.738281 171.015625 125.230469 170.9375 124.71875 C 170.859375 124.210938 170.6875 123.730469 170.417969 123.289062 C 170.152344 122.847656 169.8125 122.46875 169.398438 122.160156 C 168.980469 121.855469 168.523438 121.636719 168.023438 121.507812 Z M 163.570312 124.628906 C 163.507812 124.851562 163.46875 125.074219 163.453125 125.304688 C 163.367188 124.878906 163.390625 124.460938 163.519531 124.046875 C 163.675781 123.617188 163.90625 123.234375 164.210938 122.898438 C 164.519531 122.5625 164.878906 122.296875 165.289062 122.105469 C 165.703125 121.914062 166.136719 121.804688 166.589844 121.785156 C 167.042969 121.765625 167.484375 121.835938 167.914062 121.992188 C 168.179688 122.070312 168.429688 122.175781 168.671875 122.308594 C 166.386719 121.726562 164.128906 122.742188 163.570312 124.628906 Z M 163.570312 124.628906 " fill-opacity="1" fill-rule="nonzero"/><path fill="rgb(96.469116%, 53.329468%, 12.548828%)" d="M 116.78125 168.441406 L 203.433594 168.441406 C 203.71875 168.441406 203.992188 168.496094 204.257812 168.605469 C 204.519531 168.714844 204.753906 168.867188 204.957031 169.070312 C 205.15625 169.273438 205.3125 169.503906 205.421875 169.769531 C 205.53125 170.03125 205.585938 170.308594 205.585938 170.59375 L 205.585938 201.644531 L 116.78125 201.644531 Z M 116.78125 168.441406 " fill-opacity="1" fill-rule="nonzero"/><path fill="rgb(77.648926%, 77.648926%, 77.648926%)" d="M 261.09375 207.117188 L 116.304688 207.117188 L 116.304688 199.699219 L 200.476562 199.699219 L 200.476562 154.90625 L 226.46875 154.90625 C 227.015625 154.902344 227.550781 154.980469 228.074219 155.132812 C 228.601562 155.285156 229.09375 155.511719 229.550781 155.808594 C 230.011719 156.101562 230.417969 156.457031 230.777344 156.875 C 231.132812 157.289062 231.421875 157.746094 231.644531 158.242188 L 238.148438 173.164062 C 245.195312 175.058594 251.78125 177.976562 257.914062 181.925781 C 258.4375 182.261719 258.914062 182.65625 259.335938 183.109375 C 259.761719 183.5625 260.125 184.0625 260.425781 184.609375 C 260.722656 185.152344 260.949219 185.726562 261.105469 186.332031 C 261.257812 186.933594 261.335938 187.546875 261.335938 188.167969 L 261.335938 198.179688 Z M 261.09375 207.117188 " fill-opacity="1" fill-rule="nonzero"/><path fill="rgb(100%, 100%, 100%)" d="M 256.417969 195.125 C 256.417969 195.636719 256.511719 196.128906 256.695312 196.605469 C 256.878906 197.078125 257.140625 197.507812 257.484375 197.882812 C 257.824219 198.261719 258.226562 198.5625 258.679688 198.792969 C 259.136719 199.019531 259.617188 199.160156 260.125 199.207031 L 260.125 191.03125 C 259.617188 191.082031 259.136719 191.222656 258.679688 191.449219 C 258.222656 191.679688 257.824219 191.984375 257.480469 192.363281 C 257.140625 192.742188 256.875 193.171875 256.691406 193.648438 C 256.511719 194.121094 256.417969 194.617188 256.417969 195.125 Z M 256.417969 195.125 " fill-opacity="1" fill-rule="nonzero"/><path fill="rgb(100%, 100%, 100%)" d="M 228.128906 159.8125 C 227.984375 159.480469 227.761719 159.214844 227.457031 159.011719 C 227.15625 158.8125 226.824219 158.707031 226.460938 158.703125 L 204.226562 158.703125 L 204.226562 175.765625 L 229.757812 175.765625 L 232.957031 170.761719 Z M 228.128906 159.8125 " fill-opacity="1" fill-rule="nonzero"/><path fill="rgb(32.939148%, 21.958923%, 10.978699%)" d="M 115.785156 198.15625 L 262.214844 198.15625 C 262.386719 198.15625 262.554688 198.1875 262.714844 198.253906 C 262.875 198.324219 263.015625 198.417969 263.140625 198.539062 C 263.261719 198.664062 263.359375 198.804688 263.425781 198.964844 C 263.492188 199.125 263.523438 199.292969 263.523438 199.464844 L 263.523438 205.808594 C 263.523438 205.980469 263.492188 206.148438 263.425781 206.308594 C 263.359375 206.46875 263.261719 206.613281 263.140625 206.734375 C 263.015625 206.859375 262.875 206.953125 262.714844 207.019531 C 262.554688 207.085938 262.386719 207.117188 262.214844 207.117188 L 115.785156 207.117188 C 115.613281 207.117188 115.445312 207.085938 115.285156 207.019531 C 115.125 206.953125 114.984375 206.859375 114.859375 206.734375 C 114.738281 206.613281 114.640625 206.46875 114.574219 206.308594 C 114.507812 206.148438 114.476562 205.980469 114.476562 205.808594 L 114.476562 199.464844 C 114.476562 199.292969 114.507812 199.125 114.574219 198.964844 C 114.640625 198.804688 114.738281 198.664062 114.859375 198.539062 C 114.984375 198.417969 115.125 198.324219 115.285156 198.253906 C 115.445312 198.1875 115.613281 198.15625 115.785156 198.15625 Z M 115.785156 198.15625 " fill-opacity="1" fill-rule="nonzero"/><path fill="rgb(77.648926%, 77.648926%, 77.648926%)" d="M 241.390625 191.597656 C 240.574219 191.597656 239.765625 191.671875 238.960938 191.820312 C 238.160156 191.96875 237.378906 192.1875 236.613281 192.476562 C 235.851562 192.765625 235.121094 193.117188 234.421875 193.539062 C 233.722656 193.960938 233.066406 194.4375 232.453125 194.976562 C 231.84375 195.515625 231.28125 196.105469 230.777344 196.746094 C 230.269531 197.382812 229.824219 198.0625 229.441406 198.78125 C 229.058594 199.503906 228.742188 200.25 228.496094 201.027344 C 228.246094 201.804688 228.070312 202.597656 227.964844 203.40625 L 254.816406 203.40625 C 254.710938 202.597656 254.535156 201.804688 254.285156 201.027344 C 254.035156 200.25 253.71875 199.503906 253.335938 198.78125 C 252.953125 198.0625 252.507812 197.382812 252.003906 196.746094 C 251.496094 196.105469 250.9375 195.515625 250.324219 194.976562 C 249.710938 194.4375 249.054688 193.960938 248.359375 193.539062 C 247.660156 193.117188 246.925781 192.765625 246.164062 192.476562 C 245.402344 192.1875 244.617188 191.96875 243.816406 191.820312 C 243.015625 191.671875 242.207031 191.597656 241.390625 191.597656 Z M 241.390625 191.597656 " fill-opacity="1" fill-rule="nonzero"/><g clip-path="url(#id2)"><path fill="rgb(32.939148%, 21.958923%, 10.978699%)" d="M 253.746094 205.140625 C 253.746094 205.953125 253.667969 206.757812 253.507812 207.550781 C 253.351562 208.347656 253.117188 209.121094 252.804688 209.871094 C 252.496094 210.621094 252.113281 211.332031 251.664062 212.007812 C 251.210938 212.679688 250.699219 213.304688 250.125 213.878906 C 249.550781 214.453125 248.925781 214.964844 248.25 215.417969 C 247.574219 215.867188 246.863281 216.25 246.113281 216.558594 C 245.363281 216.871094 244.589844 217.105469 243.792969 217.261719 C 242.996094 217.421875 242.191406 217.5 241.382812 217.5 C 240.570312 217.5 239.765625 217.421875 238.96875 217.261719 C 238.171875 217.105469 237.398438 216.871094 236.648438 216.558594 C 235.898438 216.25 235.1875 215.867188 234.511719 215.417969 C 233.835938 214.964844 233.210938 214.453125 232.636719 213.878906 C 232.0625 213.304688 231.550781 212.679688 231.097656 212.007812 C 230.648438 211.332031 230.265625 210.621094 229.957031 209.871094 C 229.644531 209.121094 229.410156 208.347656 229.253906 207.550781 C 229.09375 206.757812 229.015625 205.953125 229.015625 205.140625 C 229.015625 204.328125 229.09375 203.527344 229.253906 202.730469 C 229.410156 201.933594 229.644531 201.160156 229.957031 200.410156 C 230.265625 199.660156 230.648438 198.949219 231.097656 198.273438 C 231.550781 197.601562 232.0625 196.976562 232.636719 196.402344 C 233.210938 195.828125 233.835938 195.316406 234.511719 194.863281 C 235.1875 194.414062 235.898438 194.035156 236.648438 193.722656 C 237.398438 193.414062 238.171875 193.179688 238.96875 193.019531 C 239.765625 192.859375 240.570312 192.78125 241.382812 192.78125 C 242.191406 192.78125 242.996094 192.859375 243.792969 193.019531 C 244.589844 193.179688 245.363281 193.414062 246.113281 193.722656 C 246.863281 194.035156 247.574219 194.414062 248.25 194.863281 C 248.925781 195.316406 249.550781 195.828125 250.125 196.402344 C 250.699219 196.976562 251.210938 197.601562 251.664062 198.273438 C 252.113281 198.949219 252.496094 199.660156 252.804688 200.410156 C 253.117188 201.160156 253.351562 201.933594 253.507812 202.730469 C 253.667969 203.527344 253.746094 204.328125 253.746094 205.140625 Z M 253.746094 205.140625 " fill-opacity="1" fill-rule="nonzero"/></g><path fill="rgb(100%, 100%, 100%)" d="M 246.324219 205.140625 C 246.324219 205.464844 246.292969 205.785156 246.230469 206.105469 C 246.164062 206.421875 246.070312 206.730469 245.949219 207.03125 C 245.824219 207.332031 245.671875 207.617188 245.492188 207.886719 C 245.3125 208.15625 245.105469 208.40625 244.875 208.632812 C 244.648438 208.863281 244.398438 209.066406 244.128906 209.25 C 243.859375 209.429688 243.574219 209.582031 243.273438 209.703125 C 242.972656 209.828125 242.664062 209.921875 242.34375 209.984375 C 242.027344 210.050781 241.707031 210.082031 241.382812 210.082031 C 241.054688 210.082031 240.734375 210.050781 240.417969 209.984375 C 240.097656 209.921875 239.789062 209.828125 239.488281 209.703125 C 239.191406 209.582031 238.90625 209.429688 238.636719 209.25 C 238.363281 209.066406 238.117188 208.863281 237.886719 208.632812 C 237.65625 208.40625 237.453125 208.15625 237.269531 207.886719 C 237.089844 207.617188 236.9375 207.332031 236.816406 207.03125 C 236.691406 206.730469 236.597656 206.421875 236.535156 206.105469 C 236.46875 205.785156 236.4375 205.464844 236.4375 205.140625 C 236.4375 204.816406 236.46875 204.496094 236.535156 204.175781 C 236.597656 203.859375 236.691406 203.550781 236.816406 203.25 C 236.9375 202.949219 237.089844 202.664062 237.269531 202.394531 C 237.453125 202.125 237.65625 201.875 237.886719 201.648438 C 238.117188 201.417969 238.363281 201.214844 238.636719 201.03125 C 238.90625 200.851562 239.191406 200.699219 239.488281 200.578125 C 239.789062 200.453125 240.097656 200.359375 240.417969 200.296875 C 240.734375 200.230469 241.054688 200.199219 241.382812 200.199219 C 241.707031 200.199219 242.027344 200.230469 242.34375 200.296875 C 242.664062 200.359375 242.972656 200.453125 243.273438 200.578125 C 243.574219 200.699219 243.859375 200.851562 244.128906 201.03125 C 244.398438 201.214844 244.648438 201.417969 244.875 201.648438 C 245.105469 201.875 245.3125 202.125 245.492188 202.394531 C 245.671875 202.664062 245.824219 202.949219 245.949219 203.25 C 246.070312 203.550781 246.164062 203.859375 246.230469 204.175781 C 246.292969 204.496094 246.324219 204.816406 246.324219 205.140625 Z M 246.324219 205.140625 " fill-opacity="1" fill-rule="nonzero"/><path fill="rgb(77.648926%, 77.648926%, 77.648926%)" d="M 136.417969 191.597656 C 135.601562 191.597656 134.792969 191.671875 133.992188 191.820312 C 133.1875 191.96875 132.40625 192.1875 131.644531 192.476562 C 130.878906 192.765625 130.148438 193.117188 129.449219 193.539062 C 128.75 193.960938 128.09375 194.4375 127.484375 194.976562 C 126.871094 195.515625 126.3125 196.105469 125.804688 196.746094 C 125.300781 197.382812 124.855469 198.0625 124.472656 198.78125 C 124.085938 199.503906 123.773438 200.25 123.523438 201.027344 C 123.273438 201.804688 123.097656 202.597656 122.992188 203.40625 L 149.835938 203.40625 C 149.730469 202.597656 149.554688 201.804688 149.308594 201.027344 C 149.058594 200.25 148.746094 199.503906 148.363281 198.78125 C 147.980469 198.0625 147.535156 197.382812 147.027344 196.742188 C 146.523438 196.105469 145.964844 195.515625 145.351562 194.976562 C 144.738281 194.4375 144.085938 193.957031 143.386719 193.539062 C 142.6875 193.117188 141.957031 192.761719 141.191406 192.472656 C 140.429688 192.183594 139.648438 191.96875 138.84375 191.820312 C 138.042969 191.671875 137.234375 191.597656 136.417969 191.597656 Z M 136.417969 191.597656 " fill-opacity="1" fill-rule="nonzero"/><g clip-path="url(#id3)"><path fill="rgb(32.939148%, 21.958923%, 10.978699%)" d="M 148.785156 205.140625 C 148.785156 205.953125 148.703125 206.757812 148.546875 207.550781 C 148.386719 208.347656 148.152344 209.121094 147.84375 209.871094 C 147.53125 210.621094 147.152344 211.332031 146.699219 212.007812 C 146.25 212.679688 145.738281 213.304688 145.164062 213.878906 C 144.589844 214.453125 143.964844 214.964844 143.289062 215.417969 C 142.613281 215.867188 141.902344 216.25 141.152344 216.558594 C 140.402344 216.871094 139.628906 217.105469 138.832031 217.261719 C 138.035156 217.421875 137.230469 217.5 136.417969 217.5 C 135.605469 217.5 134.800781 217.421875 134.007812 217.261719 C 133.210938 217.105469 132.4375 216.871094 131.6875 216.558594 C 130.9375 216.25 130.222656 215.867188 129.546875 215.417969 C 128.875 214.964844 128.25 214.453125 127.675781 213.878906 C 127.101562 213.304688 126.585938 212.679688 126.136719 212.007812 C 125.6875 211.332031 125.304688 210.621094 124.992188 209.871094 C 124.683594 209.121094 124.449219 208.347656 124.289062 207.550781 C 124.132812 206.757812 124.050781 205.953125 124.050781 205.140625 C 124.050781 204.328125 124.132812 203.527344 124.289062 202.730469 C 124.449219 201.933594 124.683594 201.160156 124.992188 200.410156 C 125.304688 199.660156 125.6875 198.949219 126.136719 198.273438 C 126.585938 197.601562 127.101562 196.976562 127.675781 196.402344 C 128.25 195.828125 128.875 195.316406 129.546875 194.863281 C 130.222656 194.414062 130.9375 194.035156 131.6875 193.722656 C 132.4375 193.414062 133.210938 193.179688 134.007812 193.019531 C 134.800781 192.859375 135.605469 192.78125 136.417969 192.78125 C 137.230469 192.78125 138.035156 192.859375 138.832031 193.019531 C 139.628906 193.179688 140.402344 193.414062 141.152344 193.722656 C 141.902344 194.035156 142.613281 194.414062 143.289062 194.863281 C 143.964844 195.316406 144.589844 195.828125 145.164062 196.402344 C 145.738281 196.976562 146.25 197.601562 146.699219 198.273438 C 147.152344 198.949219 147.53125 199.660156 147.84375 200.410156 C 148.152344 201.160156 148.386719 201.933594 148.546875 202.730469 C 148.703125 203.527344 148.785156 204.328125 148.785156 205.140625 Z M 148.785156 205.140625 " fill-opacity="1" fill-rule="nonzero"/></g><path fill="rgb(100%, 100%, 100%)" d="M 141.363281 205.140625 C 141.363281 205.464844 141.328125 205.785156 141.265625 206.105469 C 141.203125 206.421875 141.109375 206.730469 140.984375 207.03125 C 140.859375 207.332031 140.707031 207.617188 140.527344 207.886719 C 140.347656 208.15625 140.144531 208.40625 139.914062 208.632812 C 139.683594 208.863281 139.433594 209.066406 139.164062 209.25 C 138.894531 209.429688 138.609375 209.582031 138.308594 209.703125 C 138.011719 209.828125 137.699219 209.921875 137.382812 209.984375 C 137.0625 210.050781 136.742188 210.082031 136.417969 210.082031 C 136.09375 210.082031 135.773438 210.050781 135.453125 209.984375 C 135.136719 209.921875 134.828125 209.828125 134.527344 209.703125 C 134.226562 209.582031 133.941406 209.429688 133.671875 209.25 C 133.402344 209.066406 133.152344 208.863281 132.921875 208.632812 C 132.695312 208.40625 132.488281 208.15625 132.308594 207.886719 C 132.128906 207.617188 131.976562 207.332031 131.851562 207.03125 C 131.726562 206.730469 131.632812 206.421875 131.570312 206.105469 C 131.507812 205.785156 131.476562 205.464844 131.476562 205.140625 C 131.476562 204.816406 131.507812 204.496094 131.570312 204.175781 C 131.632812 203.859375 131.726562 203.550781 131.851562 203.25 C 131.976562 202.949219 132.128906 202.664062 132.308594 202.394531 C 132.488281 202.125 132.695312 201.875 132.921875 201.648438 C 133.152344 201.417969 133.402344 201.214844 133.671875 201.03125 C 133.941406 200.851562 134.226562 200.699219 134.527344 200.578125 C 134.828125 200.453125 135.136719 200.359375 135.453125 200.296875 C 135.773438 200.230469 136.09375 200.199219 136.417969 200.199219 C 136.742188 200.199219 137.0625 200.230469 137.382812 200.296875 C 137.699219 200.359375 138.011719 200.453125 138.308594 200.578125 C 138.609375 200.699219 138.894531 200.851562 139.164062 201.03125 C 139.433594 201.214844 139.683594 201.417969 139.914062 201.648438 C 140.144531 201.875 140.347656 202.125 140.527344 202.394531 C 140.707031 202.664062 140.859375 202.949219 140.984375 203.25 C 141.109375 203.550781 141.203125 203.859375 141.265625 204.175781 C 141.328125 204.496094 141.363281 204.816406 141.363281 205.140625 Z M 141.363281 205.140625 " fill-opacity="1" fill-rule="nonzero"/><g fill="rgb(34.899902%, 19.219971%, 9.408569%)" fill-opacity="1"><g transform="translate(116.918397, 258.491849)"><g><path d="M 9.75 -19.34375 C 11.769531 -19.34375 13.320312 -18.832031 14.40625 -17.8125 C 15.5 -16.800781 16.046875 -15.34375 16.046875 -13.4375 C 16.046875 -11.976562 15.722656 -10.703125 15.078125 -9.609375 C 14.441406 -8.523438 13.53125 -7.679688 12.34375 -7.078125 C 11.15625 -6.484375 9.757812 -6.1875 8.15625 -6.1875 L 6.234375 -6.1875 L 6.234375 -6.125 L 6.421875 0 L 2.34375 0 L 2.546875 -5.765625 L 2.34375 -19.3125 Z M 9.0625 -9.15625 C 10.894531 -9.675781 11.8125 -10.984375 11.8125 -13.078125 C 11.8125 -14.160156 11.535156 -14.96875 10.984375 -15.5 C 10.441406 -16.03125 9.597656 -16.3125 8.453125 -16.34375 L 6.421875 -16.234375 L 6.296875 -9.265625 Z M 9.0625 -9.15625 "/></g></g></g><g fill="rgb(34.899902%, 19.219971%, 9.408569%)" fill-opacity="1"><g transform="translate(133.508381, 258.491849)"><g><path d="M 12.484375 -7.6875 C 14.035156 -5.195312 15.582031 -2.953125 17.125 -0.953125 L 17.0625 -0.515625 C 15.769531 -0.046875 14.441406 0.222656 13.078125 0.296875 L 12.65625 -0.03125 C 11.21875 -2.507812 10.050781 -4.671875 9.15625 -6.515625 L 6.234375 -6.515625 L 6.234375 -6.125 L 6.421875 0 L 2.34375 0 L 2.546875 -5.765625 L 2.34375 -19.3125 L 9.75 -19.34375 C 11.769531 -19.34375 13.328125 -18.847656 14.421875 -17.859375 C 15.523438 -16.867188 16.078125 -15.457031 16.078125 -13.625 C 16.078125 -12.382812 15.757812 -11.25 15.125 -10.21875 C 14.5 -9.1875 13.617188 -8.34375 12.484375 -7.6875 Z M 6.296875 -9.65625 L 9.265625 -9.546875 C 10.960938 -10.117188 11.8125 -11.347656 11.8125 -13.234375 C 11.8125 -14.253906 11.535156 -15.019531 10.984375 -15.53125 C 10.441406 -16.039062 9.597656 -16.3125 8.453125 -16.34375 L 6.421875 -16.234375 Z M 6.296875 -9.65625 "/></g></g></g><g fill="rgb(34.899902%, 19.219971%, 9.408569%)" fill-opacity="1"><g transform="translate(151.208362, 258.491849)"><g><path d="M 14.484375 -3.359375 L 14.734375 -3.03125 L 14.453125 0 L 2.34375 0 L 2.546875 -5.765625 L 2.34375 -19.3125 L 14.578125 -19.3125 L 14.8125 -18.984375 L 14.515625 -15.953125 L 9.90625 -16.109375 L 6.421875 -16.078125 L 6.328125 -11.4375 L 9.65625 -11.375 L 12.8125 -11.453125 L 13.046875 -11.15625 L 12.78125 -8.125 L 9.359375 -8.21875 L 6.265625 -8.1875 L 6.234375 -6.125 L 6.328125 -3.203125 L 9.71875 -3.1875 Z M 14.484375 -3.359375 "/></g></g></g><g fill="rgb(34.899902%, 19.219971%, 9.408569%)" fill-opacity="1"><g transform="translate(166.478349, 258.491849)"><g><path d="M 12.9375 -3.03125 L 12.65625 0 L 2.21875 0 L 2.4375 -5.765625 L 2.21875 -19.3125 L 6.359375 -19.3125 L 6.125 -6.125 L 6.203125 -3.359375 L 12.6875 -3.359375 Z M 12.9375 -3.03125 "/></g></g></g><g fill="rgb(34.899902%, 19.219971%, 9.408569%)" fill-opacity="1"><g transform="translate(179.468331, 258.491849)"><g><path d="M 6.234375 -6.125 L 6.421875 0 L 2.34375 0 L 2.546875 -5.765625 L 2.34375 -19.3125 L 6.484375 -19.3125 Z M 6.234375 -6.125 "/></g></g></g><g fill="rgb(34.899902%, 19.219971%, 9.408569%)" fill-opacity="1"><g transform="translate(188.318322, 258.491849)"><g><path d="M 12.546875 -10.015625 C 13.859375 -9.703125 14.828125 -9.171875 15.453125 -8.421875 C 16.085938 -7.671875 16.40625 -6.679688 16.40625 -5.453125 C 16.40625 -1.710938 13.476562 0.15625 7.625 0.15625 C 5.90625 0.15625 4.144531 0.101562 2.34375 0 L 2.546875 -5.765625 L 2.34375 -19.3125 L 9.203125 -19.34375 C 11.191406 -19.34375 12.734375 -18.925781 13.828125 -18.09375 C 14.929688 -17.269531 15.484375 -16.078125 15.484375 -14.515625 C 15.484375 -13.472656 15.226562 -12.5625 14.71875 -11.78125 C 14.207031 -11.007812 13.484375 -10.421875 12.546875 -10.015625 Z M 11.3125 -13.984375 C 11.3125 -14.859375 11.050781 -15.476562 10.53125 -15.84375 C 10.007812 -16.21875 9.097656 -16.40625 7.796875 -16.40625 L 6.328125 -16.40625 L 6.234375 -11.15625 L 9.0625 -11.0625 C 9.820312 -11.269531 10.382812 -11.601562 10.75 -12.0625 C 11.125 -12.519531 11.3125 -13.160156 11.3125 -13.984375 Z M 8.3125 -2.765625 C 9.570312 -2.765625 10.546875 -3.015625 11.234375 -3.515625 C 11.921875 -4.015625 12.265625 -4.734375 12.265625 -5.671875 C 12.265625 -7.085938 11.347656 -7.96875 9.515625 -8.3125 L 6.1875 -8.25 L 6.15625 -6.125 L 6.234375 -2.875 C 6.941406 -2.800781 7.632812 -2.765625 8.3125 -2.765625 Z M 8.3125 -2.765625 "/></g></g></g><g fill="rgb(34.899902%, 19.219971%, 9.408569%)" fill-opacity="1"><g transform="translate(205.6883, 258.491849)"><g><path d="M 17.515625 0 L 13.375 0 L 12.90625 -2.515625 L 12.390625 -4.3125 L 8.609375 -4.40625 L 5.28125 -4.3125 L 4.765625 -2.734375 L 4.265625 0 L 0.234375 0 L 6.78125 -19.3125 L 11.609375 -19.3125 Z M 11.515625 -7.46875 L 9.234375 -15.515625 L 8.96875 -15.515625 L 6.328125 -7.46875 L 8.90625 -7.40625 Z M 11.515625 -7.46875 "/></g></g></g><g fill="rgb(34.899902%, 19.219971%, 9.408569%)" fill-opacity="1"><g transform="translate(223.688288, 258.491849)"><g><path d="M 14.671875 -18.984375 L 14.4375 -15.953125 L 10.796875 -16.140625 L 9.59375 -16.140625 L 9.453125 -6.125 L 9.625 0 L 5.546875 0 L 5.765625 -5.765625 L 5.609375 -16.140625 L 4.40625 -16.140625 L 0.71875 -15.953125 L 0.453125 -16.296875 L 0.71875 -19.3125 L 14.4375 -19.3125 Z M 14.671875 -18.984375 "/></g></g></g><g fill="rgb(34.899902%, 19.219971%, 9.408569%)" fill-opacity="1"><g transform="translate(238.778272, 258.491849)"><g><path d="M 9.984375 -19.59375 C 12.703125 -19.59375 14.796875 -18.765625 16.265625 -17.109375 C 17.742188 -15.460938 18.484375 -13.117188 18.484375 -10.078125 C 18.484375 -6.753906 17.679688 -4.191406 16.078125 -2.390625 C 14.484375 -0.597656 12.222656 0.296875 9.296875 0.296875 C 6.597656 0.296875 4.515625 -0.546875 3.046875 -2.234375 C 1.578125 -3.921875 0.84375 -6.316406 0.84375 -9.421875 C 0.84375 -12.679688 1.632812 -15.191406 3.21875 -16.953125 C 4.8125 -18.710938 7.066406 -19.59375 9.984375 -19.59375 Z M 9.625 -16.3125 C 8.03125 -16.3125 6.867188 -15.8125 6.140625 -14.8125 C 5.421875 -13.8125 5.0625 -12.1875 5.0625 -9.9375 C 5.0625 -7.351562 5.414062 -5.507812 6.125 -4.40625 C 6.84375 -3.3125 8.019531 -2.765625 9.65625 -2.765625 C 11.257812 -2.765625 12.421875 -3.269531 13.140625 -4.28125 C 13.859375 -5.289062 14.21875 -6.941406 14.21875 -9.234375 C 14.21875 -11.773438 13.863281 -13.585938 13.15625 -14.671875 C 12.445312 -15.765625 11.269531 -16.3125 9.625 -16.3125 Z M 9.625 -16.3125 "/></g></g></g></svg>